<?xml version="1.0" encoding="UTF-8" standalone="no"?>
<!-- Created with Inkscape (http://www.inkscape.org/) -->

<svg
   xmlns:dc="http://purl.org/dc/elements/1.1/"
   xmlns:cc="http://creativecommons.org/ns#"
   xmlns:rdf="http://www.w3.org/1999/02/22-rdf-syntax-ns#"
   xmlns:svg="http://www.w3.org/2000/svg"
   xmlns="http://www.w3.org/2000/svg"
   xmlns:sodipodi="http://sodipodi.sourceforge.net/DTD/sodipodi-0.dtd"
   xmlns:inkscape="http://www.inkscape.org/namespaces/inkscape"
   width="50mm"
   height="50mm"
   viewBox="0 0 50 50"
   version="1.1"
   id="svg2115"
   inkscape:version="0.92.4 (5da689c313, 2019-01-14)"
   sodipodi:docname="bookmark_06.svg">
  <defs
     id="defs2109">
    <inkscape:path-effect
       effect="simplify"
       id="path-effect2668"
       is_visible="true"
       steps="1"
       threshold="0.00961538"
       smooth_angles="360"
       helper_size="0"
       simplify_individual_paths="false"
       simplify_just_coalesce="false"
       simplifyindividualpaths="false"
       simplifyJustCoalesce="false" />
    <inkscape:path-effect
       effect="spiro"
       id="path-effect2670"
       is_visible="true" />
    <inkscape:path-effect
       effect="simplify"
       id="path-effect2668-4"
       is_visible="true"
       steps="1"
       threshold="0.0270909"
       smooth_angles="360"
       helper_size="0"
       simplify_individual_paths="false"
       simplify_just_coalesce="false"
       simplifyindividualpaths="false"
       simplifyJustCoalesce="false" />
    <inkscape:path-effect
       effect="spiro"
       id="path-effect2670-3"
       is_visible="true" />
    <filter
       inkscape:collect="always"
       style="color-interpolation-filters:sRGB"
       id="filter2943"
       x="-0.095599235"
       width="1.1911985"
       y="-0.09640414"
       height="1.1928083">
      <feGaussianBlur
         inkscape:collect="always"
         stdDeviation="6.0018188"
         id="feGaussianBlur2945" />
    </filter>
  </defs>
  <sodipodi:namedview
     id="base"
     pagecolor="#ffffff"
     bordercolor="#666666"
     borderopacity="1.0"
     inkscape:pageopacity="0.0"
     inkscape:pageshadow="2"
     inkscape:zoom="1.4"
     inkscape:cx="161.83577"
     inkscape:cy="248.10644"
     inkscape:document-units="mm"
     inkscape:current-layer="layer6"
     showgrid="false"
     inkscape:window-width="2560"
     inkscape:window-height="1417"
     inkscape:window-x="-8"
     inkscape:window-y="-8"
     inkscape:window-maximized="1" />
  <metadata
     id="metadata2112">
    <rdf:RDF>
      <cc:Work
         rdf:about="">
        <dc:format>image/svg+xml</dc:format>
        <dc:type
           rdf:resource="http://purl.org/dc/dcmitype/StillImage" />
        <dc:title></dc:title>
      </cc:Work>
    </rdf:RDF>
  </metadata>
  <g
     inkscape:groupmode="layer"
     id="layer6"
     inkscape:label="Layer 2" />
  <g
     inkscape:label="Layer 1"
     inkscape:groupmode="layer"
     id="layer1"
     transform="translate(0,-247)">
    <path
       transform="matrix(0.27059077,0,0,0.27059077,-3.5934634,240.60161)"
       style="opacity:0.98999999;fill:none;stroke:#000000;stroke-width:1.06500006;stroke-linecap:butt;stroke-linejoin:miter;stroke-miterlimit:4;stroke-dasharray:none;stroke-opacity:0.81545069;filter:url(#filter2943)"
       d="M 67.35192,81.046221 C 54.301069,93.569227 47.680375,112.46995 50.064071,130.39949 c 2.383696,17.92954 13.712752,34.44389 29.582248,43.12199 13.683659,7.4828 30.482681,9.09205 45.297641,4.2185 14.81497,-4.87356 27.41072,-16.19083 33.71698,-30.45498 7.24251,-16.38187 5.87062,-36.26103 -3.41998,-51.574566 C 145.95037,80.396898 129.03366,70.01962 111.18508,68.520409 94.965567,67.158033 78.236566,73.078457 66.609668,84.468976 54.98277,95.859494 48.711601,112.54899 50.138446,128.76296 c 1.497832,17.02062 11.519351,33.07863 26.155303,41.89532 14.635952,8.8167 33.520631,10.1681 49.259491,3.51727 13.82815,-5.84342 24.99766,-17.66443 30.09258,-31.78551 5.09491,-14.12109 4.05246,-30.33057 -2.76765,-43.70403 -6.78269,-13.300077 -19.146,-23.603655 -33.39987,-28.044817 -14.25388,-4.441162 -30.211248,-3.007372 -43.525437,3.747572 -16.065005,8.150569 -28.000328,24.091043 -31.070065,41.841895 -3.069738,17.75086 2.886691,36.87562 15.656209,49.58214 12.532246,12.47042 31.201486,18.37061 48.665743,15.61957 17.46425,-2.75105 33.33292,-14.00169 41.93539,-29.44727 6.72178,-12.06883 9.0595,-26.53614 6.38888,-40.08999 C 154.85841,98.341271 147.18276,85.816482 136.26073,77.357868 125.05745,68.681435 110.47822,64.388809 96.392434,65.933073 82.306651,67.477336 68.901556,74.920905 60.398869,86.256617 50.935704,98.87283 47.887737,115.87335 51.606432,131.19952 c 3.718695,15.32618 13.933131,28.81254 27.257916,37.2488 8.792859,5.56698 18.931229,9.0316 29.307302,9.83326 10.37608,0.80167 20.97011,-1.0794 30.3612,-5.56416 9.39109,-4.48475 17.54494,-11.57979 23.13724,-20.35656 5.59231,-8.77678 8.58371,-19.2171 8.31333,-29.62059 C 169.60021,107.9956 162.57596,93.688994 151.63662,83.795414 140.69729,73.901833 126.0669,68.386043 111.32808,67.821154 98.173413,67.31698 84.81842,70.708533 73.774014,77.872371 62.729609,85.036209 54.106144,96.008455 50.244431,108.59363 c -4.446616,14.49135 -2.374672,30.7669 5.180362,43.90817 7.555035,13.14128 20.40376,23.04395 34.912306,27.43414 15.666091,4.74046 33.157291,3.05149 47.672701,-4.51166 14.51541,-7.56315 25.90274,-20.89454 31.19733,-36.38213 5.53943,-16.20379 4.31804,-34.65753 -3.56027,-49.862142 C 157.76855,73.975396 143.28176,62.282506 126.68576,58.061042 112.09803,54.350414 96.209695,56.401253 82.811313,63.260852 69.41293,70.12045 58.554191,81.65708 52.064692,95.23858 c -7.276856,15.22931 -9.005866,33.37942 -3.078105,49.18278 2.96388,7.90169 7.788819,15.12713 14.106645,20.72233 6.317825,5.5952 14.131816,9.5302 22.433015,11.05048 13.15875,2.40989 27.143133,-1.43755 37.825793,-9.48996 10.68265,-8.0524 18.10662,-20.06251 21.50717,-33.00069 4.27296,-16.25746 2.14912,-34.365191 -6.94415,-48.502933 -4.54664,-7.068871 -10.75825,-13.084221 -18.06098,-17.24487 -7.30273,-4.160649 -15.69145,-6.442378 -24.095975,-6.373602 -8.353262,0.06836 -16.656429,2.45899 -23.845633,6.713046 -7.189205,4.254055 -13.257666,10.349176 -17.611178,17.478593 -8.707024,14.258836 -10.212752,32.431216 -5.040301,48.317446 4.007605,12.30862 11.886952,23.34477 22.302384,31.03124 10.415432,7.68647 23.325413,11.96752 36.269863,11.90188 16.90056,-0.0857 33.66553,-7.79385 44.54568,-20.7267 10.88015,-12.93285 15.60475,-30.88905 12.25911,-47.45537 C 161.51108,93.358768 151.45106,79.449368 137.8214,71.465104 124.19174,63.480839 107.22586,61.496219 92.065981,65.934011 76.488868,70.49394 62.99302,81.784549 55.82406,96.346329 48.655101,110.90811 47.9443,128.52383 53.988443,143.58729 c 7.121466,17.7484 23.516531,31.37097 42.186029,35.51476 18.669498,4.14379 39.104088,-1.15296 53.676828,-13.53667 12.28777,-10.44197 20.39595,-25.779 21.69467,-41.85187 1.29871,-16.07288 -4.34011,-32.665655 -15.46172,-44.34186 C 144.21964,66.915394 126.50889,60.486349 109.35188,61.736985 92.194859,62.987621 75.841226,71.698416 64.679226,84.787993 54.287847,96.973869 48.317681,112.98265 48.80667,128.99006 c 0.488989,16.00741 7.581196,31.82538 19.614328,42.39326 12.771083,11.21597 30.724215,16.09766 47.507152,13.40852 16.78294,-2.68913 32.14819,-12.75434 41.76087,-26.772 7.72144,-11.25976 11.80308,-24.97536 11.48975,-38.6247 -0.31333,-13.64935 -5.02082,-27.164535 -13.2587,-38.05215 -8.76959,-11.590356 -21.57043,-20.149172 -35.72601,-23.444902 -14.15557,-3.29573 -29.561729,-1.219574 -42.15136,6.042884 -8.283907,4.778657 -15.295693,11.713659 -20.26181,19.886564 -4.966116,8.172905 -7.886718,17.563024 -8.544995,27.103754 -1.316553,19.08144 6.713175,38.42439 20.593849,51.58348 15.059855,14.27697 37.012546,21.18308 57.402836,17.32725 10.19514,-1.92792 19.90599,-6.43096 27.89632,-13.05006 7.99033,-6.61909 14.23455,-15.34789 17.81829,-25.08517 5.83502,-15.85415 4.3237,-34.12051 -3.4704,-49.108952 C 161.68268,77.609399 147.84736,66.005326 131.9404,60.315853 119.23497,55.771476 105.16577,54.915249 92.112696,58.335277 79.059621,61.755306 67.106618,69.507451 59.021732,80.310876 49.068158,93.611334 45.343084,111.32327 48.850992,127.5612 c 3.507907,16.23793 14.122816,30.75934 28.402681,39.24823 16.00246,9.51291 36.395387,11.25659 53.777607,4.59079 17.38221,-6.6658 31.38217,-21.60151 36.90313,-39.38052 4.62963,-14.90868 3.30787,-31.63452 -3.88713,-45.488556 C 156.85228,72.677111 143.80683,61.916506 128.75165,57.7881 114.50579,53.881624 98.836059,55.943868 85.773472,62.841255 72.710884,69.738642 62.292178,81.303266 56.187919,94.754777 50.07072,108.2348 48.228704,123.67744 51.368717,138.14366 c 3.140014,14.46622 11.307615,27.85162 22.966811,36.97271 13.491682,10.55466 31.567352,15.10425 48.405812,11.95901 16.83847,-3.14524 32.12547,-14.0001 40.43843,-28.97745 5.23004,-9.42289 7.72871,-20.30546 7.37891,-31.07681 -0.3498,-10.77134 -3.52089,-21.40931 -8.91248,-30.740696 C 150.863,77.617643 131.31592,64.703909 110.22216,60.27332 93.541423,56.769653 75.460816,58.440926 60.62529,66.833175 53.207528,71.0293 46.683442,76.856869 41.905103,83.913648 c -4.77834,7.05678 -7.780992,15.346622 -8.358843,23.849372 -0.897024,13.1992 4.125835,26.43797 12.47889,36.69712 8.353056,10.25914 19.838319,17.68091 32.151171,22.52005 12.872098,5.05894 27.010859,7.42806 40.663479,5.21678 13.65262,-2.21128 26.74814,-9.27948 34.88089,-20.46618 5.31566,-7.31176 8.39131,-16.18766 8.99519,-25.20728 0.60388,-9.01961 -1.23608,-18.15975 -5.05015,-26.35554 C 150.03761,83.776384 134.64336,71.629258 117.41714,66.140216 102.86279,61.502553 86.684441,61.400417 72.503989,67.079474 58.323538,72.75853 46.401434,84.455747 41.623233,98.964561 c -2.848085,8.648089 -3.147442,18.089889 -1.055823,26.951399 2.091618,8.8615 6.54655,17.12743 12.643595,23.88962 12.19409,13.52437 30.759799,20.59652 48.965095,20.18222 14.64456,-0.33326 29.2011,-5.33078 40.74668,-14.34598 11.54558,-9.0152 19.96912,-22.04195 23.11025,-36.34955 3.32774,-15.1576 0.57882,-31.639933 -7.854,-44.667373 C 149.74622,61.597456 135.6528,52.277241 120.2966,50.038123 106.81558,48.072428 92.725286,51.528923 81.334056,59.001662 69.942826,66.474401 61.257532,77.820555 56.424672,90.558114 50.16051,107.06803 50.420044,126.04764 57.59119,142.1843 c 7.171146,16.13666 21.275844,29.15389 38.091299,34.54441 15.388821,4.93318 32.715221,3.38888 47.058381,-4.05596 14.34316,-7.44484 25.54944,-20.66901 30.6824,-35.99235 6.47207,-19.32096 2.96931,-41.704724 -9.12957,-58.09998 C 152.19482,62.185165 131.81668,52.234353 111.44887,52.817214 95.728225,53.267088 80.221853,59.861002 69.161281,71.041557 58.100709,82.222111 51.658776,97.898232 51.900164,113.62346 c 0.256613,16.71706 8.195042,33.23019 21.303653,43.60759 13.108611,10.37739 31.172773,14.3047 47.323253,9.98174 14.28052,-3.82243 26.71173,-13.92482 33.5848,-27.01317 6.87307,-13.08836 8.14968,-28.95398 3.68505,-43.046932 -4.92327,-15.540695 -16.77984,-28.722627 -31.67727,-35.342165 -14.89743,-6.619538 -32.58657,-6.594484 -47.502195,-0.01604 -14.83788,6.544156 -26.73216,19.469963 -32.01173,34.803417 -5.279571,15.333449 -3.862682,32.846829 3.823215,47.126729 5.097767,9.47132 12.834486,17.48953 22.066026,23.00967 9.23154,5.52013 19.928676,8.53803 30.682494,8.75838 10.75382,0.22034 21.54076,-2.34674 31.08992,-7.29716 9.54917,-4.95043 17.8474,-12.26632 24.03954,-21.06124 10.73438,-15.24643 14.86173,-35.16176 10.29736,-53.240673 C 166.3221,84.854149 161.94761,76.33742 155.84832,69.286265 149.74903,62.235109 141.92772,56.667704 133.22938,53.312248 118.9948,47.821142 102.67287,48.466139 88.552763,54.245246 74.432659,60.024353 62.53805,70.736847 54.522983,83.718915 46.96528,95.960186 42.746727,110.33301 43.076513,124.7156 c 0.329785,14.38258 5.296801,28.71159 14.394434,39.85612 8.820952,10.8056 21.454388,18.454 35.136518,21.16869 13.682125,2.71469 28.311255,0.45668 40.492755,-6.339 13.26693,-7.4012 23.38452,-20.00994 28.46832,-34.32582 5.08379,-14.31587 5.23739,-30.212 1.18332,-44.85283 C 158.16652,83.663321 148.04249,68.470267 133.76955,58.903474 119.49661,49.336681 101.05452,45.770255 84.544607,50.530849 70.237988,54.65613 57.940136,64.817359 50.42287,77.669907 42.905605,90.522455 40.06747,105.8933 41.609842,120.7027 c 1.63302,15.67978 8.156038,30.86656 18.665376,42.61714 10.509339,11.75058 24.989672,19.95913 40.531212,22.60163 17.11101,2.90935 35.27431,-1.04785 49.67946,-10.72992 14.40514,-9.68208 24.91389,-24.96873 28.89055,-41.86361 4.45297,-18.91847 0.54353,-39.747345 -10.87979,-55.471385 -11.42331,-15.724039 -30.26447,-25.93652 -49.69377,-26.426353 -14.76813,-0.37232 -29.52151,4.731757 -41.259459,13.701538 -11.73795,8.96978 -20.460971,21.686404 -25.158594,35.69243 -4.962101,14.79457 -5.440414,31.2409 -0.268177,45.96332 5.172236,14.72242 16.185792,27.51885 30.451972,33.84165 14.132066,6.26336 30.821638,5.90352 45.129758,0.0535 14.30813,-5.85 26.22069,-16.92145 34.11237,-30.21304 10.86473,-18.29895 14.12741,-41.29941 7.27761,-61.448214 C 165.66345,78.947005 159.7993,69.685093 152.01258,62.433163 144.22586,55.181234 134.51814,49.971255 124.12388,47.694673 114.26181,45.534654 103.85654,46.025835 94.183418,48.916651 84.510299,51.807468 75.580362,57.07498 68.233432,63.999476 53.539572,77.84847 45.57724,98.164281 45.455592,118.3556 c -0.09176,15.23064 4.15454,30.57851 12.746156,43.15487 8.591616,12.57636 21.60065,22.23291 36.345633,26.04949 14.698859,3.80464 30.726869,1.69176 44.255029,-5.20175 13.52815,-6.89351 24.5293,-18.41279 31.40852,-31.94822 5.83973,-11.49016 8.7816,-24.45276 8.37081,-37.33521 -0.4108,-12.88245 -4.18417,-25.655905 -10.92745,-36.640184 C 160.91101,65.450317 151.20497,56.288862 139.80184,50.280974 128.3987,44.273085 115.32526,41.446681 102.46519,42.309763 84.60638,43.508327 67.41853,51.914365 55.14973,64.947025 42.880931,77.979684 35.560575,95.458329 34.389302,113.31895 c -0.945363,14.41574 2.075006,29.15732 9.169075,41.74229 7.094068,12.58497 18.316924,22.90988 31.69484,28.36319 14.168083,5.77541 30.448453,5.9243 44.902433,0.90708 14.45398,-5.01722 27.01726,-15.07105 35.5332,-27.78202 9.70482,-14.4855 14.15657,-32.56401 11.52558,-49.80034 C 164.58343,89.512824 154.71098,73.355264 140.14697,63.768674 125.47745,54.112637 106.61598,51.466277 89.587449,55.763119 72.558917,60.059961 57.48033,71.02363 47.300745,85.334808 c -6.673568,9.382173 -11.347569,20.228602 -13.21867,31.589082 -1.8711,11.36049 -0.901401,23.22372 3.136215,34.00608 4.037616,10.78236 11.174595,20.4381 20.515339,27.16953 9.340743,6.73143 20.875772,10.46209 32.384102,10.11566 15.232409,-0.45853 29.812679,-8.05558 40.123999,-19.27668 10.31132,-11.2211 16.54214,-25.81636 19.14006,-40.83259 2.53771,-14.66821 1.66983,-30.159691 -4.20106,-43.839207 C 139.30984,70.587168 128.12488,58.912971 114.0518,54.060652 105.76396,51.203051 96.690843,50.754475 88.113568,52.566799 79.536294,54.379123 71.467839,58.425625 64.741906,64.048434 51.29004,75.294052 43.593972,92.653236 42.631692,110.16011 c -0.786991,14.31782 2.753124,28.89544 10.318722,41.07662 7.565597,12.18118 19.166014,21.8728 32.622342,26.82726 16.290024,5.99779 35.065104,4.80645 50.510824,-3.11618 15.44573,-7.92263 27.34829,-22.43707 32.1862,-39.10839 4.95529,-17.07579 2.4071,-36.234415 -7.04567,-51.293718 -9.45277,-15.059303 -25.70693,-25.718776 -43.3204,-28.148388 -19.28016,-2.659515 -39.486955,4.630315 -53.260211,18.381496 -13.773256,13.751182 -21.058231,33.5229 -20.393836,52.97428 0.443303,12.97849 4.352138,25.94745 11.913068,36.50538 7.56093,10.55794 18.868159,18.56215 31.556804,21.32548 8.368695,1.82254 17.187475,1.36682 25.407075,-1.04043 8.2196,-2.40725 15.83747,-6.7396 22.29803,-12.36256 12.92114,-11.24594 20.96685,-27.42307 24.30519,-44.22433 3.56607,-17.94738 1.86454,-37.295916 -6.95147,-53.330356 -4.408,-8.01722 -10.54805,-15.115358 -18.03107,-20.379455 -7.48302,-5.264098 -16.3152,-8.661644 -25.42924,-9.462073 -13.110512,-1.151414 -26.463995,3.168789 -36.980435,11.081802 -10.516439,7.913014 -18.244013,19.253697 -22.64252,31.657906 -6.377718,17.985776 -5.701321,38.593426 2.905013,55.625576 4.303167,8.51608 10.511685,16.08193 18.119364,21.84075 7.607678,5.75882 16.611248,9.69062 26.032095,11.20339 12.504693,2.00796 25.704643,-0.35298 36.624153,-6.76886 10.91951,-6.41587 19.44598,-16.87433 23.31555,-28.93359 3.05431,-9.51855 3.21516,-19.92705 0.57527,-29.56876 -2.6399,-9.64171 -8.05651,-18.489123 -15.35914,-25.315776 -7.30263,-6.826654 -16.4615,-11.624615 -26.20425,-13.862991 -9.74275,-2.238376 -20.044768,-1.925074 -29.668063,0.781173 -14.626998,4.11338 -27.74454,14.041697 -34.721953,27.539274 -3.488707,6.74879 -5.435382,14.30732 -5.494895,21.90428 -0.05951,7.59695 1.782258,15.2191 5.431893,21.88224 3.51787,6.42257 8.688206,11.91085 14.809142,15.93068 6.120937,4.01982 13.176523,6.57646 20.433135,7.55952 14.513221,1.96614 29.578831,-2.4852 41.397841,-11.13449 8.15716,-5.96951 14.89428,-13.91655 19.21851,-23.05304 4.32424,-9.13648 6.20048,-19.45394 5.1173,-29.50387 -1.08318,-10.049929 -5.1557,-19.79463 -11.73856,-27.465372 -6.58286,-7.670742 -15.67416,-13.204023 -25.56592,-15.284258 -7.73597,-1.626873 -15.898268,-1.147209 -23.4054,1.329677 -7.507132,2.476886 -14.342787,6.940182 -19.664982,12.785371 -5.322196,5.84519 -9.123032,13.056291 -10.983383,20.739461 -1.860351,7.683171 -1.78112,15.822231 0.182407,23.479681 3.615022,14.09802 13.796407,26.32679 26.926345,32.60591 13.129933,6.27913 28.954223,6.5495 42.365283,0.89564 9.07188,-3.82454 17.03027,-10.26053 22.63976,-18.35125 5.6095,-8.09071 8.8471,-17.81087 9.17526,-27.6505 0.32815,-9.839639 -2.25893,-19.763285 -7.37844,-28.172612 -5.11951,-8.409327 -12.75597,-15.269876 -21.67821,-19.431588 -8.39966,-3.917958 -17.88816,-5.434041 -27.10277,-4.436203 -9.214603,0.997838 -18.132789,4.494694 -25.634193,9.938365 -7.501404,5.443671 -13.576633,12.813359 -17.587808,21.168902 -4.011175,8.355542 -5.960556,17.677886 -5.742988,26.943806 0.211939,9.0262 2.480215,18.01393 6.703246,25.99411 4.223032,7.98017 10.405467,14.93344 17.916555,19.9435 7.511087,5.01007 16.342769,8.0536 25.355288,8.59371 9.01252,0.54011 18.18157,-1.44152 26.1002,-5.77886 8.88322,-4.86568 16.10472,-12.67704 20.34129,-21.87693 4.23657,-9.19989 5.47974,-19.73549 3.58944,-29.68603 -1.8903,-9.950539 -6.89221,-19.273729 -14.07394,-26.415805 -7.18172,-7.142075 -16.50572,-12.083734 -26.4302,-14.106364 -14.91666,-3.040044 -31.149282,0.762504 -42.973423,10.350948 -11.82414,9.588445 -18.922919,24.836381 -18.346225,40.048741 0.553533,14.60141 8.095181,28.68248 19.636301,37.64407 11.541121,8.96159 26.816357,12.78206 41.296317,10.82294 11.56253,-1.5644 22.6421,-6.73656 31.12191,-14.75105 8.47981,-8.0145 14.28951,-18.85329 16.06118,-30.38587 1.77166,-11.53259 -0.54576,-23.685523 -6.61651,-33.649728 -6.07074,-9.964206 -15.8799,-17.631426 -27.07543,-20.917684 -14.2043,-4.169433 -30.22205,-1.049404 -42.183707,7.672133 -11.961657,8.721537 -19.760934,22.737403 -21.473034,37.441659 -1.776395,15.25645 3.028589,31.30014 13.418448,42.61234 5.19493,5.65609 11.702956,10.1129 18.887853,12.8251 7.1849,2.71219 15.03756,3.66716 22.65154,2.66413 10.66767,-1.4053 20.73763,-6.69241 28.15048,-14.49138 7.41284,-7.79896 12.16017,-18.03272 13.5989,-28.69593 1.43873,-10.66322 -0.39736,-21.70791 -4.95997,-31.452476 -4.56262,-9.744569 -11.80942,-18.17711 -20.59923,-24.38302 C 126.76852,65.451863 114.1983,61.222995 101.51521,61.127712 88.83213,61.032428 76.100486,65.12641 66.051575,72.865214 54.249844,81.953888 46.428336,95.971927 44.657682,110.76211 42.887029,125.5523 47.13041,140.93324 56.04502,152.867 c 11.075376,14.82632 29.251641,24.01961 47.75386,24.40921 18.50221,0.38961 36.95237,-7.94973 49.07929,-21.92906 11.70984,-13.49854 17.41008,-32.02708 15.31383,-49.77353 C 166.09575,87.827162 156.23576,71.137074 141.7047,60.736149 126.25186,49.675436 105.90747,45.959972 87.394315,50.248661 68.881161,54.53735 52.417742,66.608927 42.228584,82.649837 33.540863,96.327017 29.334351,112.86191 30.774721,129.00091 c 1.440369,16.13899 8.581683,31.7677 20.084395,43.17951 10.676447,10.59207 25.009957,17.44054 39.964809,19.03143 14.954855,1.59089 30.428205,-2.09816 43.023585,-10.31612 10.74018,-7.00753 19.3457,-17.2411 24.40678,-29.02424 5.06108,-11.78314 6.55801,-25.06998 4.24558,-37.68385"
       id="path2666-9"
       inkscape:connector-curvature="0"
       inkscape:path-effect="#path-effect2668;#path-effect2670"
       inkscape:original-d="m 67.35192,81.046221 c -7.319841,6.939108 -9.773875,15.271438 -14.432555,24.588799 -1.500675,3.00134 -0.534538,13.18074 -0.534538,17.10525 0,3.584 -0.98747,9.78492 0.534538,12.82893 4.476596,8.9532 7.149483,16.97166 11.225321,25.12334 3.282132,6.56426 10.983949,8.31125 15.501633,12.82894 0.527227,0.52722 2.283137,0.14498 2.672693,0.53453 4.85212,4.85212 21.141598,6.6081 28.330568,4.81086 6.5726,-1.64315 14.096,1.00308 20.31249,-1.06908 4.11147,-1.37049 7.13607,-6.18282 10.69078,-8.55263 3.49408,-2.32938 7.6978,-5.3995 10.15624,-9.08716 4.67386,-7.0108 15.63072,-29.54692 12.82894,-37.95227 -1.26436,-3.79307 -2.49021,-7.47061 -3.74178,-11.22532 -0.9091,-2.72732 -4.28923,-6.16658 -5.87992,-8.55263 -2.57853,-3.867778 -5.18688,-11.601334 -7.48355,-13.898013 -7.10668,-7.106671 -14.75946,-11.156105 -24.5888,-14.432555 -7.77671,-2.592236 -15.38408,-9.784722 -24.588794,-7.483546 -6.778887,1.694722 -12.070739,5.805376 -18.708867,8.018087 -4.243764,1.414587 -17.126424,8.594973 -18.708868,11.759858 -3.060207,6.120416 -4.199217,14.201269 -6.414468,20.847019 -1.013121,3.03937 1.420286,7.85021 0,10.69079 -3.24272,6.48544 -7.023941,14.74229 -4.276312,22.98517 5.328425,15.98528 17.145457,28.1658 32.072341,33.14142 5.536991,1.84567 12.636175,-0.77697 18.174328,1.06908 1.05876,0.35292 2.75246,-0.49465 3.74177,0 5.30509,2.65255 27.80652,-1.07956 31.53781,-4.81085 7.45885,-7.45885 14.14001,-16.22763 17.63979,-26.72695 0.36702,-1.10106 2.01002,-2.21323 2.67269,-3.20724 3.64433,-5.46649 9.88385,-14.7152 7.48355,-21.91609 -1.20588,-3.61763 -8.13561,-17.22278 -10.69078,-19.77795 -0.50208,-0.502076 -1.85552,-0.755687 -2.13816,-1.603618 -1.5446,-4.633804 -5.93374,-7.296991 -8.55262,-11.225321 C 135.33969,75.58552 123.18668,67.585465 112.2532,63.940972 110.43913,63.33628 108.60703,63.7215 106.90781,62.871894 103.22448,61.03023 87.358629,65.468332 83.922631,66.613666 77.675575,68.696019 67.636267,87.392379 66.282842,92.80608 c -2.149713,8.59886 -9.87338,14.1185 -12.828937,22.98518 -2.471859,7.41557 0.630063,21.57261 3.741772,27.79603 1.748203,3.4964 -0.485251,13.51133 1.069078,18.17433 0.943814,2.83143 3.33906,5.47721 5.345393,7.48354 12.072834,12.07284 27.61244,6.29749 41.694042,1.60362 2.63213,-0.87737 5.92173,-0.19211 8.55263,-1.06908 6.50047,-2.16682 13.5741,-2.59171 20.31248,-4.27631 6.9748,-1.7437 28.12452,-23.97066 30.46873,-31.00326 1.97047,-5.91144 1.97418,-15.45903 0,-21.38157 -1.60163,-4.80488 -5.76701,-9.28295 -6.94901,-12.82893 -6.6753,-20.025914 -33.36155,-29.721951 -51.31575,-34.210502 -1.26547,-0.316367 -2.09102,0.255485 -3.20723,0.534538 -2.34716,0.58679 -5.113209,0.06047 -7.483551,0.53454 -6.563346,1.31267 -12.051987,6.269022 -17.639789,9.621703 -1.82454,1.094724 -5.989576,3.986525 -8.018084,4.276312 -0.881946,0.125992 -1.89058,-0.426609 -2.672696,0 -1.379755,0.752594 -12.529042,9.400021 -13.898015,11.225321 -10.502201,14.002938 -5.839449,29.521088 -1.069078,43.832198 1.458809,4.37643 -0.987668,10.8536 1.069078,14.9671 3.612761,7.22552 12.338979,14.57733 20.312483,16.57071 3.359206,0.8398 6.849941,0.77704 10.156243,1.60361 3.689368,0.92235 8.07049,-0.92234 11.759858,0 18.293651,4.57341 31.988811,-3.49454 48.643051,-10.15624 6.00384,-2.40153 15.65089,-6.37108 19.24341,-11.75986 4.64328,-6.96492 6.41447,-16.27423 6.41447,-24.58879 0,-5.4641 0.8985,-12.10102 -1.60362,-17.10525 -10.44183,-20.883659 -27.10419,-29.894864 -48.64305,-35.279579 -4.77163,-1.192909 -11.94975,-4.49611 -17.10525,-3.207235 -4.70735,1.176835 -7.839847,3.474456 -11.759861,6.414469 -3.097365,2.323023 -8.358115,4.179056 -11.759861,5.879928 -1.528643,0.764323 -8.305014,3.733911 -9.621702,3.207234 -0.827178,-0.33087 -1.292977,-1.885344 -2.138156,-1.603616 -1.320213,0.440071 -1.616094,2.301573 -2.672694,3.207234 -1.685007,1.444292 -4.693288,2.020591 -6.414471,3.741772 -4.36309,4.363093 -9.538692,20.644523 -8.018084,26.726953 0.833959,3.33583 1.406604,9.34067 0.534538,12.82894 -2.279137,9.11655 -2.26118,22.2456 2.672696,30.46872 7.632576,12.72096 22.978041,19.59858 36.883194,21.9161 4.271918,0.71199 8.650459,1.837 12.828941,2.6727 6.14135,1.22827 11.43538,-2.07326 17.10525,-3.20723 8.61639,-1.72328 17.71892,-1.37592 25.65787,-5.3454 4.6095,-2.30474 8.08892,-8.90843 11.22532,-12.82893 16.97831,-21.22289 20.94846,-51.7918 10.15624,-76.973625 -7.48268,-17.459589 -20.65321,-29.521038 -40.62496,-26.192413 -4.91536,0.819226 -9.5693,2.931231 -14.43256,3.741774 -5.29885,0.883142 -11.67615,6.921103 -16.570711,8.552625 -5.041926,1.680641 -10.958904,0.980273 -16.03617,2.672693 -4.455623,1.48521 -8.519039,3.908759 -12.828937,5.345391 -1.355209,0.451736 -2.184863,2.696048 -3.207234,3.207234 -12.390557,6.195279 -19.715231,32.385921 -17.105252,45.435821 1.290678,6.45338 5.218621,13.55081 9.087165,18.70886 2.220796,2.96107 3.076578,7.13116 5.34539,10.15625 6.456672,8.60889 14.83147,15.43382 24.588796,20.31248 5.92138,2.96069 11.46417,4.33603 17.639793,5.87993 2.01238,0.5031 4.40208,-0.50309 6.41446,0 13.0908,3.2727 23.11912,-9.88958 28.33057,-20.31248 2.5424,-5.08479 5.45832,-10.29922 6.41447,-16.03618 1.3071,-7.84261 -0.24033,-16.19777 1.06908,-24.05425 1.81119,-10.86717 -0.65166,-38.999332 -7.48355,-48.108515 -2.40187,-3.202504 -5.2378,-7.375959 -8.01808,-10.156243 -1.79612,-1.796116 -4.68569,-2.641404 -6.94901,-3.207234 -1.82489,-0.456221 -3.42783,-1.658766 -5.34539,-2.138156 -13.99371,-3.49843 -30.884108,7.364388 -40.090427,16.570711 -0.61263,0.612629 -7.722484,6.949006 -8.018087,6.949006 -0.734653,0 -1.573779,-1.004853 -2.138156,-0.534538 -0.865714,0.721429 -0.509977,2.228805 -1.069078,3.207234 -0.640271,1.120474 -2.833648,2.530941 -3.741772,3.741772 -5.683284,7.577712 -11.060724,17.515943 -13.363477,26.726953 -1.3951,5.5804 -0.457989,24.69086 2.672694,28.86511 11.46784,15.29045 33.427534,29.98187 52.384823,33.14142 9.02364,1.50394 23.08411,-2.98943 31.00327,-6.94901 2.60999,-1.30499 6.02592,-1.15667 8.55262,-2.67269 8.03199,-4.8192 14.24392,-8.46884 18.17433,-17.63979 3.51044,-8.19103 4.1668,-18.62538 3.20724,-27.26149 -0.49188,-4.42685 0.0175,-8.94742 -0.53454,-13.36348 -1.69465,-13.55717 -15.81094,-31.785247 -26.19242,-40.090428 -4.78619,-3.828957 -9.68503,-3.773437 -14.96709,-6.414468 -5.56772,-2.783861 -11.82918,-4.264758 -18.17433,-3.207234 -5.364711,0.894119 -21.028198,12.08238 -26.726949,15.501633 -3.663403,2.198042 -7.801933,3.751834 -11.225321,6.414468 -7.695518,5.985402 -16.586568,19.338559 -18.174327,28.865109 -0.800838,4.80502 0.410244,9.82073 1.069078,14.43255 0.918723,6.43107 1.097333,13.07305 3.741772,19.24341 1.7048,3.97787 5.291891,7.95388 8.018086,11.22532 3.11422,3.73706 5.62849,8.23041 9.621703,11.22532 8.920935,6.6907 21.958935,11.76598 33.141418,13.36348 11.58241,1.65462 27.57638,-1.86724 37.41774,-8.01809 5.3062,-3.31638 9.96369,-8.45635 15.50163,-11.22532 4.90755,-2.45377 12.87803,-5.97811 15.50163,-11.22532 6.06676,-12.13351 4.71958,-27.5049 0,-40.09043 -4.95324,-13.208629 -18.43361,-35.676485 -31.5378,-42.228584 -3.33324,-1.666621 -6.83081,-3.148137 -10.15624,-4.81085 -6.41848,-3.209239 -13.40262,-5.87434 -20.84703,-4.810852 -7.40238,1.057484 -15.848497,4.218625 -21.916099,8.552624 -3.050429,2.178878 -5.438704,5.259319 -8.552625,7.483546 -3.030336,2.164528 -6.250365,5.450637 -9.621702,6.949009 -1.02978,0.457679 -2.335056,0.355478 -3.207234,1.069078 -1.186291,0.9706 -1.654384,2.596174 -2.672694,3.741772 -1.4571,1.639237 -3.787553,2.718475 -5.345393,4.276315 -1.964669,1.964669 -3.996907,5.576252 -4.81085,8.018084 -1.544452,4.633358 -4.473744,8.976368 -5.87993,13.898018 -4.789369,16.76279 -3.029077,34.86378 5.87993,49.71213 3.028183,5.04697 9.127337,7.96468 13.898015,10.69078 6.594956,3.76855 12.889002,8.09241 20.847023,9.08716 20.772359,2.59655 54.632249,-5.2147 68.420999,-22.45064 6.70341,-8.37925 9.22952,-19.17082 10.69078,-29.39964 0.46132,-3.22927 1.67579,-6.38514 2.13816,-9.62171 1.49957,-10.49698 -4.20886,-23.746004 -10.15624,-32.072341 -10.88739,-15.242336 -29.78916,-27.950035 -48.10852,-31.003263 -2.71829,-0.453049 -5.69675,-1.640253 -8.55262,-1.069078 -3.46384,0.692766 -6.711695,2.346094 -10.156247,3.207234 -5.520264,1.380066 -10.671019,2.25697 -15.501633,5.87993 -5.527074,4.145307 -9.08573,10.154809 -13.898014,14.967093 -28.015152,28.015155 -22.433836,67.148185 11.759858,87.664405 3.060007,1.836 7.110338,4.21411 10.690781,4.81085 9.042365,1.50706 39.642985,4.24728 47.573975,1.60362 9.25531,-3.08511 14.78138,-11.64843 22.98518,-16.57071 8.60047,-5.16029 16.39341,-11.23062 18.17433,-21.9161 C 178.21837,117.16277 150.95632,75.346551 137.91107,64.47551 123.95366,52.844334 92.969544,44.935531 76.439084,54.853808 69.15509,59.224203 66.470558,69.004788 62.006529,75.700831 54.067559,87.609285 45.748926,102.77897 42.228584,116.86034 c -1.721524,6.8861 4.784619,21.49853 7.483547,27.79603 2.511671,5.86056 11.780623,15.77928 17.639789,18.70886 9.028332,4.51417 37.98208,9.99926 48.10851,8.55263 8.44739,-1.20677 16.33723,-5.6605 24.5888,-8.01809 5.01407,-1.43259 19.68112,-5.54037 22.45064,-10.15624 13.26901,-22.11502 -0.59036,-48.75469 -10.69078,-68.955537 -2.85584,-5.711677 -6.11508,-12.529547 -10.69078,-17.105249 -6.47459,-6.474595 -17.77236,-14.031193 -26.19242,-17.639789 -7.53503,-3.229298 -17.59298,-0.860047 -24.588791,2.138156 -4.990084,2.138609 -10.823667,4.142229 -15.501633,6.949009 -12.410874,7.446526 -18.148533,34.387485 -21.916101,47.57397 -2.641796,9.24629 -8.607049,18.91686 -6.949006,28.86511 1.568516,9.41111 6.53583,16.65039 12.294396,24.05426 13.950151,17.93591 27.650307,24.05426 50.246675,24.05426 8.5231,0 14.91068,-0.52326 22.98518,-2.13816 2.91757,-0.58351 5.5741,-2.71081 8.55262,-3.20723 1.93725,-0.32288 4.67056,-0.73166 6.41447,-1.60362 27.07503,-13.53752 21.96984,-51.53973 9.6217,-73.76639 C 149.26381,90.683452 139.29095,81.465342 128.82391,72.493597 119.44697,64.456217 109.93872,56.93226 96.751567,59.13012 89.598158,60.322356 85.661068,66.813524 79.646319,69.8209 c -6.244723,3.122361 -12.95477,6.046174 -18.708868,10.156243 -3.466965,2.476405 -6.378831,5.315693 -9.621702,8.018084 -5.21653,4.347109 -11.396443,6.82081 -15.501633,12.294403 -3.196741,4.26232 -2.138156,10.4995 -2.138156,15.50163 0,3.21299 -1.343925,6.9187 -0.534538,10.15624 1.316726,5.2669 6.309942,10.45844 9.621703,14.43255 12.27765,14.73319 30.13771,27.67239 49.71213,30.46873 9.555965,1.36514 22.924115,0.8919 31.537805,-4.27631 2.55057,-1.53034 5.15021,-3.12917 8.01809,-4.27631 6.19498,-2.478 14.27506,-2.51521 19.2434,-7.48355 7.23992,-7.23992 8.55262,-22.90561 8.55262,-32.60688 0,-10.00042 -7.56551,-23.615359 -13.89801,-31.003266 -2.55227,-2.977645 -5.00615,-6.383615 -6.94901,-9.621705 -1.43319,-2.388659 -4.37803,-3.648361 -6.41447,-5.34539 C 119.96452,65.734397 104.8818,59.298866 88.733481,56.991964 c -3.904856,-0.557837 -7.459157,1.132848 -11.225318,1.603618 -2.808177,0.35102 -5.785536,-0.01889 -8.552625,0.534538 -14.014153,2.802832 -25.30667,16.784978 -27.261491,30.468725 -1.670688,11.694805 3.498815,27.358705 9.087162,37.417735 1.648589,2.96746 4.101163,5.17206 5.87993,8.01808 7.033713,11.25394 15.775898,28.06564 29.399648,32.60689 15.935823,5.31194 26.541033,1.32804 40.090433,-6.41447 10.86243,-6.20711 22.15628,-9.80302 30.46872,-19.77795 14.13096,-16.95715 12.14843,-43.58255 0,-60.937449 -3.44886,-4.926944 -7.74673,-8.949042 -11.75986,-13.363475 C 140.27044,62.099602 135.04623,56.361348 128.82391,53.250189 120.37363,49.025047 97.931186,43.559401 89.268021,48.973877 79.461124,55.103191 74.396588,64.983031 67.88646,74.097212 61.777205,82.65017 54.676029,91.277862 51.315749,101.3587 c -1.281848,3.84555 -0.933241,8.27215 -1.603618,12.2944 -0.626708,3.76026 -2.243434,8.4555 -1.603616,12.2944 2.874719,17.24831 13.206793,33.8453 28.330569,43.29766 5.669077,3.54318 12.754684,6.55659 19.243405,7.48355 3.036668,0.43381 6.058171,1.70544 9.087161,2.13816 13.32894,1.90413 26.04911,-6.2271 37.95228,-10.69078 7.18031,-2.69262 14.04847,-3.35769 19.77794,-9.08717 2.75351,-2.75351 4.3375,-6.68577 5.87993,-10.15624 2.34166,-5.26873 5.29441,-10.71548 5.87993,-16.57071 2.35735,-23.57349 -5.71713,-51.001905 -24.05426,-66.282842 -2.00017,-1.666814 -3.47727,-3.609525 -5.87993,-4.810852 -8.67953,-4.339767 -27.20851,-11.353419 -36.88319,-7.483546 -4.27383,1.709531 -8.187576,5.671327 -12.294398,8.018086 -4.676606,2.672345 -10.247606,5.204667 -14.432555,8.552625 -9.617165,7.693731 -17.621449,20.810338 -22.98518,31.537799 -1.364379,2.72877 -4.214402,4.62512 -5.34539,8.01809 -2.720734,8.1622 6.719517,31.5371 10.690781,38.48681 2.075174,3.63156 5.610521,6.6796 8.552624,9.6217 6.307,6.307 13.155409,14.48697 22.450642,16.03617 12.737796,2.12297 23.701056,-5.70332 34.745036,-11.22531 6.73146,-3.36574 14.19434,-4.69175 20.84702,-8.01809 8.45547,-4.22774 16.11281,-23.14035 17.10525,-32.07234 1.66412,-14.97701 -10.74051,-27.858195 -19.2434,-38.486815 -7.84319,-9.803982 -16.83604,-23.175253 -28.86511,-28.330569 -2.96361,-1.270119 -6.51557,-1.785229 -9.6217,-2.672697 -4.05378,-1.158221 -8.52927,-2.217854 -12.82894,-1.603616 -5.820326,0.831475 -21.708308,13.090335 -26.726954,17.105249 -7.506922,6.005539 -27.936433,18.735937 -30.468726,28.86511 -1.570609,6.282428 -1.217462,15.784088 0.53454,21.916098 3.499422,12.24798 16.586393,37.29586 26.726952,44.90128 9.64316,7.23237 22.148606,9.98893 33.67596,12.2944 14.841298,2.96826 42.716808,-8.17632 52.384828,-19.77794 4.57586,-5.49104 8.29719,-13.73726 9.08716,-20.84703 1.84187,-16.5768 -1.88229,-33.31498 -6.41446,-49.177591 -0.92459,-3.236037 -0.69823,-6.452817 -1.60362,-9.621702 -4.29738,-15.040814 -12.31062,-19.053091 -24.5888,-26.726952 -3.36811,-2.10507 -6.57324,-4.757171 -10.69078,-5.34539 -30.901768,-4.414538 -48.248941,15.445002 -63.610147,38.48681 -1.62932,2.44398 -4.654283,4.214238 -6.414468,6.414471 -2.936753,3.67094 -6.677821,10.667274 -7.483546,15.501634 -1.155653,6.93391 1.79982,14.37384 3.741771,20.84702 1.942947,6.47648 1.612236,13.38933 3.741775,19.77794 3.365428,10.09629 9.485595,20.46633 17.639789,27.2615 8.452456,7.04371 17.17086,17.24708 28.865107,18.70886 13.151179,1.6439 27.238139,-7.2046 38.486809,-12.82893 18.85058,-9.42529 27.00288,-10.97825 35.81412,-31.53781 2.80137,-6.53652 1.05449,-20.94183 0,-27.79603 -3.9522,-25.689318 -26.32313,-56.626515 -50.78121,-66.817381 -6.4023,-2.667624 -13.4598,-3.207234 -20.312485,-3.207234 -11.559023,0 -24.350373,0.246766 -33.675959,8.018087 -5.298059,4.415049 -6.714599,13.429196 -9.621703,19.243405 -3.486565,6.97313 -12.370255,26.723413 -13.363477,33.675963 -1.908929,13.36251 11.88249,50.90384 21.381564,60.40291 10.477346,10.47735 36.429418,14.93219 50.78121,16.03617 17.03376,1.31029 33.74794,3.01062 47.57397,-9.08716 4.63381,-4.05459 6.86303,-8.9582 10.15625,-13.89802 20.14952,-30.22429 0.39976,-73.366625 -22.45065,-96.217026 C 141.59469,61.210118 133.85423,54.641405 124.01306,52.181111 112.52304,49.308607 79.933918,53.49713 71.093694,62.337354 62.677756,70.753292 55.77519,89.522958 52.384827,100.82417 c -3.76201,12.54003 -10.599965,23.26797 -9.087165,36.88319 2.248459,20.23612 42.131231,49.64192 62.006528,51.85029 10.44703,1.16078 22.82908,-4.21138 31.00327,-10.15624 12.4063,-9.02277 22.19805,-19.65577 27.79603,-34.2105 6.71117,-17.44906 4.27604,-52.91981 -5.34539,-68.955541 -7.98709,-13.311807 -24.69815,-27.658928 -40.62497,-29.934186 -36.606777,-5.22954 -62.724862,31.73843 -70.559155,63.075607 -1.468954,5.87581 -3.289168,12.00958 -2.672694,18.17433 0.6439,6.43901 5.301927,11.2876 7.483546,17.10525 10.808613,28.82297 26.115682,43.25691 58.799293,45.43582 11.67652,0.77843 33.60516,0.85491 43.29766,-6.41447 7.84237,-5.88177 10.15506,-17.63662 13.36348,-26.19241 14.19603,-37.85609 3.0535,-73.996215 -29.93419,-97.82065 C 131.21647,54.82967 124.84261,49.412604 117.06405,46.301183 105.70736,41.758507 88.642424,39.162111 76.973622,44.163027 51.793399,54.95455 32.030519,97.649587 34.2105,123.80935 c 1.049417,12.593 12.943856,22.03769 18.708865,32.60688 5.087897,9.32781 8.148915,20.96456 18.708867,25.65787 17.824667,7.92208 60.921198,4.29257 74.835468,-9.6217 6.38705,-6.38705 10.03292,-17.80438 12.82894,-26.19242 2.81041,-8.43123 5.81672,-16.69172 6.41447,-25.65787 C 167.50368,93.653535 150.50779,68.740318 128.28937,54.853808 112.03606,44.69549 98.565617,46.860983 81.784475,54.319267 75.643244,57.048704 69.323843,59.501693 64.144686,63.940972 35.787607,88.247039 30.802834,132.22836 51.850287,162.29616 c 2.766838,3.95262 4.556543,8.83285 8.018086,12.29439 9.402765,9.40277 36.168515,18.53167 48.643057,12.2944 11.06201,-5.531 18.26705,-18.21578 24.58879,-28.33057 C 144.8204,139.8021 158.20491,117.49225 152.87817,94.409698 149.95622,81.74792 138.7204,72.397159 129.35845,64.47551 122.8844,58.997468 116.6156,53.908853 107.97689,52.181111 71.068961,44.799527 54.550143,70.370003 45.435818,101.3587 c -3.387105,11.51616 -9.007022,24.00057 -6.949006,36.34866 2.25139,13.50835 14.929027,24.9675 26.192414,31.5378 8.071741,4.70852 41.142794,16.67595 50.781204,17.63979 3.68103,0.3681 7.67106,-0.0997 11.22533,-1.06907 29.91468,-8.15856 53.51458,-59.82965 41.69404,-88.198948 -4.14981,-9.959551 -16.44473,-22.2045 -25.12334,-28.330569 -27.1371,-19.155606 -54.184286,-22.254795 -79.111774,2.672693 -5.808475,5.808475 -11.2395,11.253682 -14.967093,18.708868 -9.184129,18.368256 -5.639573,47.065726 2.138156,65.213766 3.744661,8.73754 8.816123,21.82492 17.639789,26.72695 9.575837,5.31991 27.810732,2.43608 37.952272,0.53454 16.02473,-3.00464 35.52707,-9.64747 45.43582,-23.51972 13.05524,-18.27734 7.05241,-55.41627 -3.74178,-73.766389 C 144.53462,78.942776 139.44721,73.129835 134.1693,67.148206 124.20106,55.850861 114.3995,43.027639 98.355186,42.024871 74.012281,40.50344 59.064813,61.380089 51.850287,81.580759 46.115205,97.63899 39.832031,111.82066 43.832203,129.15474 c 3.583268,15.52749 15.928146,33.88921 30.468725,41.1595 6.693797,3.3469 15.145428,4.75605 22.450639,5.87993 10.288763,1.58289 20.933803,2.52716 31.003263,-1.06908 9.64284,-3.44387 17.41756,-10.4355 22.45064,-19.2434 15.69967,-27.47441 8.84669,-54.82227 -15.50163,-74.300931 -3.74715,-2.997719 -7.35491,-5.962444 -11.75986,-8.018084 -13.71474,-6.400215 -28.060815,-2.698623 -42.228583,0 -10.899429,2.076079 -23.489372,4.863137 -29.399648,15.501633 -15.381041,27.685872 -3.987199,64.108002 23.519717,79.111782 8.200668,4.47309 18.598832,9.25295 28.330574,7.48354 11.66098,-2.12018 19.59101,-15.06612 27.79603,-22.45064 4.70865,-4.23779 9.17214,-8.27795 12.29439,-13.89801 3.04213,-5.47583 3.8103,-12.11609 4.27632,-18.17433 1.38574,-18.01466 -2.82918,-32.046305 -14.43256,-45.97036 -3.8828,-4.659368 -8.30699,-10.287563 -13.89801,-12.828936 -11.09344,-5.042472 -25.057116,-0.04415 -34.745041,6.414468 -4.850252,3.233502 -9.039723,8.133681 -13.898015,11.225321 -0.950727,0.60501 -2.369611,0.315217 -3.207234,1.069078 -3.385902,3.047312 -8.256437,12.536252 -9.087165,17.105249 -3.571835,19.64511 11.706347,37.06131 24.054257,50.78121 11.203382,12.4482 14.238521,19.57657 31.537808,17.10525 1.81942,-0.25992 3.61527,-0.20402 5.34539,-1.06908 12.93827,-6.46914 22.79287,-38.72668 26.72695,-51.31575 4.57177,-14.629656 6.57992,-32.270522 -2.13816,-45.970356 -2.55416,-4.013679 -6.7429,-6.249696 -10.69078,-8.552624 -19.403,-11.318417 -45.864024,-2.440387 -59.86837,13.898014 -24.517053,28.603236 -23.676255,83.286766 15.501631,98.355186 36.386579,13.99484 60.919599,-22.18284 63.075609,-54.52298 0.55924,-8.38858 1.37398,-17.487974 -3.20724,-25.123338 -3.34846,-5.580775 -9.29167,-9.269865 -14.43255,-12.828937 -7.99063,-5.53198 -14.54904,-9.973656 -24.5888,-10.690781 -8.93074,-0.63791 -28.86491,5.345198 -35.279572,11.759859 -10.64383,10.64383 -21.915559,37.956067 -19.777945,52.919367 1.751484,12.26038 10.048137,20.0976 18.708867,27.79603 4.833133,4.29612 11.975362,9.84909 18.708868,10.69078 10.778792,1.34735 28.422472,-2.23006 36.348652,-10.15624 22.53966,-22.53966 33.66599,-66.611541 5.34539,-89.268024 -4.98379,-3.987035 -11.44736,-10.798862 -18.17433,-11.759858 -11.91165,-1.701665 -19.507084,8.335941 -27.796027,14.967092 -4.641284,3.713028 -9.79777,8.074663 -13.363475,12.828937 -9.299133,12.398843 -10.747269,38.476703 -6.414468,52.919363 3.227718,10.75907 27.285029,39.64106 40.62497,37.41774 9.07533,-1.51256 16.76099,-10.23178 21.9161,-17.10525 7.25901,-9.67868 14.01546,-21.55173 16.03617,-33.67596 2.34197,-14.05183 0.0442,-38.727919 -6.94901,-51.315751 C 133.93941,66.199852 121.74334,62.615063 111.18412,61.802816 101.10832,61.027754 89.817407,60.234604 80.180856,63.940972 57.935259,72.49697 50.125143,95.794929 47.039437,117.39487 c -0.86791,6.07537 -1.640771,14.29633 0,20.31249 2.193755,8.04378 7.78638,13.47475 12.828936,19.77795 4.346771,5.43346 8.421116,10.6754 14.432555,14.43255 3.118641,1.94915 6.718893,2.71057 10.156241,3.74177 24.743091,7.42293 51.449261,-1.21928 68.421001,-20.31248 2.28508,-2.57072 5.48843,-4.69038 7.48355,-7.48355 9.30202,-13.02284 10.73349,-38.85049 6.949,-53.988442 -1.73771,-6.95085 -7.41285,-12.740574 -11.75986,-18.174327 -5.19281,-6.491012 -11.84618,-14.599301 -19.2434,-18.708867 -7.04028,-3.911264 -22.09864,-3.45625 -29.93419,-2.672697 -9.225494,0.922552 -19.336538,-1.629129 -28.33057,1.069078 -3.259796,0.97794 -6.694003,1.911961 -9.621702,3.741775 -3.540943,2.213088 -5.825482,5.571823 -9.087165,8.018086 -6.085816,4.564362 -12.512508,9.377979 -17.105249,15.501631 -4.759912,6.346552 -7.85718,39.934953 -6.949006,48.108513 0.679498,6.11549 2.984328,12.13065 5.345391,17.63979 1.48282,3.45991 4.4422,6.02738 5.879927,9.6217 2.263992,5.65998 2.082904,14.03936 7.483547,17.63979 5.466056,3.64404 22.847855,4.33306 29.934188,5.34539 10.789346,1.54134 23.095039,7.03395 34.210499,4.81086 10.14473,-2.02895 21.9604,-6.45877 29.39965,-13.89802 3.15404,-3.15404 5.88582,-6.9549 9.08716,-10.15624 2.23596,-2.23596 6.08278,-4.01863 6.94901,-7.48355 1.44264,-5.77055 0.21635,-11.67071 1.06908,-17.63979 1.16474,-8.1532 1.00192,-14.60044 -2.13816,-22.45064" />
    <path
       transform="matrix(0.27059076,0,0,0.27059076,-6.3579991,237.37629)"
       style="fill:none;stroke:#ffffff;stroke-width:1.06500006;stroke-linecap:butt;stroke-linejoin:miter;stroke-miterlimit:4;stroke-dasharray:none;stroke-opacity:1"
       d="M 67.35192,81.046221 C 56.376955,92.007308 49.9832,107.4201 49.976581,122.93123 c -0.0066,15.51114 6.373979,30.92938 17.339585,41.89983 11.306527,11.31152 27.427529,17.7408 43.402354,16.97075 15.97483,-0.77006 31.52236,-8.82829 41.09057,-21.64381 8.79576,-11.78091 12.36037,-27.2549 9.92435,-41.7539 C 159.29743,103.9051 150.97026,90.542589 139.2214,81.704075 126.69848,72.283249 110.28253,68.061753 94.839522,70.724259 79.396512,73.386764 65.202599,83.020207 57.413358,96.61812 c -8.145892,14.22053 -8.950112,32.34199 -2.324766,47.33145 6.625345,14.98945 20.450044,26.54035 36.317148,30.64084 13.95342,3.60594 29.28665,1.50971 41.77611,-5.68155 12.48946,-7.19126 21.99461,-19.38772 25.94785,-33.24675 4.221,-14.79772 2.0212,-31.31972 -5.96902,-44.470595 -7.99023,-13.150879 -21.66233,-22.724184 -36.763,-25.683762 -16.24572,-3.183997 -33.897916,1.448061 -46.315262,12.396617 -12.417346,10.948556 -19.237092,28.01734 -17.524261,44.48329 1.343711,12.9175 7.77372,25.17977 17.413135,33.88315 9.639415,8.70339 22.367241,13.83028 35.332898,14.57797 16.13718,0.93058 32.6985,-5.08996 43.95721,-16.68808 5.62935,-5.79905 9.92062,-12.90442 12.33918,-20.61605 2.41857,-7.71163 2.95168,-16.01924 1.4422,-23.95902 C 160.53736,96.407239 152.3501,84.541934 141.31198,76.919137 130.27386,69.29634 116.5587,65.849603 103.16604,66.613666 88.279335,67.462965 73.570681,73.593563 63.207268,84.314336 52.843855,95.035109 47.165634,110.39685 49.062498,125.18662 c 1.870736,14.58605 10.97891,27.83821 23.35321,35.78361 12.3743,7.94539 27.725442,10.74319 42.305692,8.82773 16.55223,-2.17453 32.50364,-10.5781 42.42203,-24.00682 4.95919,-6.71436 8.3704,-14.59474 9.66364,-22.84118 1.29324,-8.24643 0.44445,-16.84625 -2.63192,-24.605896 C 159.22167,85.849698 148.54521,75.965378 136.03863,71.04283 123.53205,66.120281 109.37589,65.988748 96.456318,69.694249 83.75723,73.336512 72.06264,80.69736 63.727209,90.946921 c -8.335431,10.249559 -13.189273,23.395349 -12.946,36.604199 0.268282,14.56675 6.796725,28.83432 17.34771,38.88116 10.550984,10.04684 24.943108,15.84203 39.503371,16.35287 16.11604,0.56543 32.37084,-5.34084 44.35579,-16.13006 11.98495,-10.78923 19.56214,-26.34158 20.65847,-42.43022 1.01492,-14.89394 -3.50561,-30.108602 -12.521,-42.007436 C 151.11015,70.3186 137.67156,61.844361 123.0409,58.877323 109.01192,56.032305 94.047178,58.249612 81.341435,64.842823 68.635693,71.436035 58.249336,82.329029 52.064692,95.23858 c -6.59924,13.77496 -8.363362,30.02453 -3.761031,44.5888 4.602331,14.56428 15.812759,27.13902 30.172184,32.34541 12.011504,4.35509 25.658155,3.44248 37.390655,-1.61632 11.7325,-5.05881 21.5634,-14.07496 28.45904,-24.83103 9.62844,-15.01879 13.59938,-33.9765 8.97339,-51.206451 -2.313,-8.614974 -6.72387,-16.68974 -12.9052,-23.120835 -6.18132,-6.431096 -14.13892,-11.183591 -22.79514,-13.337112 -13.68791,-3.405323 -28.708608,-0.05685 -40.209551,8.109148 -11.500943,8.166 -19.488761,20.864426 -22.797407,34.57603 -2.922871,12.11289 -2.298194,25.08241 1.928229,36.8043 4.226422,11.72188 12.059167,22.14026 22.239782,29.32498 11.280476,7.96092 25.402397,11.84694 39.155507,10.63146 13.75311,-1.21548 27.01884,-7.55241 36.50111,-17.58794 12.75348,-13.49761 18.12835,-33.48198 14.20536,-51.63266 C 164.69864,90.135693 151.70408,74.25951 134.83062,66.505615 120.81014,60.062758 104.2963,59.170954 89.717069,64.223713 75.137842,69.276472 62.67732,80.252846 55.974347,94.150845 49.946248,106.64955 48.617555,121.31817 52.139603,134.7402 c 3.522049,13.42203 11.836894,25.50553 23.015302,33.72738 12.214716,8.98407 27.796695,13.28945 42.885315,11.79063 15.08861,-1.49883 29.53763,-8.80078 39.6488,-20.10021 9.48739,-10.60234 15.08871,-24.65475 15.27712,-38.88095 0.1884,-14.22621 -5.08546,-28.494176 -14.6436,-39.032787 C 147.43698,70.242059 131.2702,63.407453 115.06778,63.233705 98.865372,63.059958 82.808071,69.369958 70.559154,79.977143 58.322452,90.57375 49.782358,105.55992 47.71258,121.61423 c -2.069779,16.05432 2.554973,33.01798 13.105975,45.29403 11.707126,13.62119 30.259311,20.7865 48.167125,19.4067 17.90781,-1.37979 34.84937,-11.00793 45.89084,-25.17407 8.09747,-10.38901 13.1405,-23.15762 14.1654,-36.28964 1.0249,-13.13202 -1.99586,-26.575213 -8.6802,-37.925101 -7.30752,-12.408031 -18.99448,-22.203977 -32.53714,-27.098398 -13.54266,-4.894422 -28.843775,-4.822119 -42.289682,0.332171 -16.476013,6.315837 -29.80808,20.290725 -35.44057,37.012682 -5.63249,16.721956 -3.490857,35.868256 5.607643,50.986656 8.033415,13.34862 21.302487,23.42821 36.288746,27.68654 14.986263,4.25834 31.533673,2.67526 45.487033,-4.25476 10.0613,-4.997 18.76793,-12.7025 24.91248,-22.10697 6.14455,-9.40448 9.70602,-20.48549 10.14558,-31.71075 C 173.23767,99.849457 165.75045,81.836783 152.80726,69.417794 139.86407,56.998806 121.72588,50.280257 103.7987,50.891582 86.957097,51.465889 70.297707,58.513706 58.637675,70.679768 46.977643,82.84583 40.610745,100.08679 42.228584,116.86034 c 1.347666,13.97243 8.126825,27.27037 18.320954,36.92049 10.194128,9.65012 23.674043,15.6539 37.619485,17.25691 14.714317,1.69139 30.004927,-1.51311 42.618837,-9.27593 12.61391,-7.76282 22.42321,-20.08594 26.82368,-34.22836 4.91684,-15.80192 2.85869,-33.698898 -5.77631,-47.816718 -8.635,-14.11782 -23.76709,-24.148156 -40.17505,-26.305673 -13.20673,-1.73658 -26.903179,1.532351 -38.268841,8.478944 -11.365661,6.946593 -20.40986,17.449924 -26.219176,29.436802 -6.239303,12.874105 -8.807651,27.567825 -6.877835,41.743415 1.929816,14.1756 8.414756,27.76052 18.529076,37.87843 12.519277,12.52372 30.603563,19.38237 48.251056,17.91886 17.64749,-1.46351 34.48967,-11.34563 44.05137,-26.25032 5.80174,-9.0437 8.93489,-19.73515 9.20498,-30.47646 0.27009,-10.74131 -2.29372,-21.50861 -7.13167,-31.10251 -9.67589,-19.187812 -28.32113,-33.156958 -48.98257,-39.064576 -16.450199,-4.70352 -34.663964,-4.466835 -50.155433,2.795846 -7.745735,3.63134 -14.718103,8.978862 -20.001685,15.706923 -5.283581,6.728061 -8.845658,14.84413 -9.928048,23.330087 -1.584367,12.42147 2.222396,25.20068 9.226035,35.58105 7.003638,10.38037 17.02959,18.48243 28.023818,24.4766 12.022099,6.55457 25.582242,10.76373 39.266283,10.27361 13.68405,-0.49012 27.46237,-6.0307 36.39538,-16.4083 9.11023,-10.58348 12.48216,-25.43889 10.45006,-39.25472 -2.0321,-13.81582 -9.09614,-26.582222 -18.51283,-36.893981 C 127.2916,68.781195 111.45949,59.320882 94.244263,57.299289 85.636648,56.288493 76.78156,57.150139 68.624624,60.078814 c -8.156937,2.928675 -15.592878,7.947003 -21.140957,14.605199 -5.721779,6.866652 -9.363882,15.401419 -10.610644,24.25214 -1.246761,8.850717 -0.123106,17.993737 2.994596,26.370467 6.235405,16.75346 20.358873,29.98616 36.841069,36.90685 14.396246,6.04482 30.798232,7.52802 45.856762,3.40095 15.05852,-4.12706 28.61106,-13.98892 36.51667,-27.45343 7.18601,-12.23892 9.53413,-27.25946 6.29657,-41.077857 C 162.14114,83.264738 153.32377,70.813864 141.29319,63.284268 129.94611,56.182455 115.96381,53.53652 102.74017,55.616705 89.516517,57.696891 77.130695,64.415469 67.88646,74.097212 56.160228,86.378419 49.577182,103.44832 50.122023,120.41993 c 0.54484,16.97162 8.236621,33.61852 20.875462,44.95837 12.65966,11.35853 30.059075,17.20483 47.023075,15.97772 16.96401,-1.22712 33.28092,-9.46557 44.47931,-22.2671 8.01692,-9.16461 13.44331,-20.58322 15.41688,-32.59846 1.97356,-12.01525 0.47907,-24.58938 -4.32027,-35.779889 C 168.79715,79.520063 160.70146,69.756576 150.5543,63.026323 140.40714,56.29607 128.2423,52.63307 116.0663,52.711152 101.42102,52.805069 86.894145,58.369156 75.852698,67.990985 64.81125,77.612814 57.325974,91.198365 54.97,105.65321 c -2.506075,15.37577 0.869391,31.73382 9.719809,44.55431 8.850419,12.82048 23.178133,21.85186 38.638671,23.76669 15.82048,1.95941 32.30267,-3.61618 44.06141,-14.37995 11.75875,-10.76377 18.72448,-26.44419 19.38596,-42.37182 C 167.53323,98.98552 160.00032,80.552514 146.6444,68.111513 133.28849,55.670512 114.33831,49.460675 96.21703,51.646573 79.347852,53.681435 63.482458,62.9029 53.292638,76.499863 43.102818,90.096825 38.705828,107.87362 41.293109,124.66695 c 2.167179,14.06656 9.180707,27.38959 19.758092,36.91238 10.577385,9.5228 24.675103,15.12271 38.907601,15.14938 14.680318,0.0275 29.171608,-5.84811 40.161178,-15.58164 10.98958,-9.73353 18.49698,-23.16848 21.72293,-37.48999 3.83997,-17.04744 1.5518,-35.620356 -7.37138,-50.644915 C 145.54835,57.987606 129.82883,46.897615 112.49507,44.683692 96.809645,42.680299 80.564811,47.956083 68.260298,57.888107 55.955786,67.820132 47.515402,82.1358 43.567607,97.447921 c -3.654004,14.172609 -3.566115,29.361989 0.752045,43.346549 4.31816,13.98457 12.920774,26.69359 24.616082,35.49327 11.91393,8.96418 27.000943,13.73222 41.884126,12.84403 14.88319,-0.88819 29.42063,-7.51084 39.57284,-18.43012 10.38488,-11.16953 15.91862,-26.44722 16.26127,-41.69474 0.34264,-15.24752 -4.3072,-30.404337 -12.13566,-43.493239 C 146.17124,71.557672 133.95593,59.637875 119.00625,53.238619 104.05657,46.839362 86.314492,46.366794 71.715299,53.52969 57.931452,60.292547 47.762262,73.447287 43.293748,88.136162 c -4.468515,14.688878 -3.505291,30.737378 1.287495,45.323668 4.196021,12.77011 11.327526,24.6339 21.028944,33.93792 9.701418,9.30401 21.996582,15.98381 35.196243,18.52372 17.11282,3.29289 35.44806,-0.60202 49.88393,-10.36406 14.43586,-9.76203 24.84259,-25.23185 28.68608,-42.22947 4.07548,-18.0236 0.68794,-37.708838 -9.59173,-53.064228 C 159.50504,64.908323 142.38031,54.206844 124.01306,52.181111 109.283,50.556526 94.096713,54.432843 81.645214,62.468645 69.193715,70.504446 59.491804,82.581167 53.816944,96.270941 47.911617,110.51668 46.34416,126.68649 50.356927,141.57648 c 4.012767,14.88999 13.773522,28.33121 27.186604,35.94063 12.665883,7.18552 28.147779,8.93726 42.302699,5.51756 14.15493,-3.4197 26.92465,-11.8374 36.27356,-23.00227 10.42384,-12.44859 16.69137,-28.46079 16.78632,-44.69701 0.0949,-16.236214 -6.13708,-32.550076 -17.53353,-44.114879 C 141.91875,57.567938 121.63623,51.190658 102.69597,54.134245 83.755707,57.077832 66.547238,69.087221 56.756107,85.565451 48.49843,99.462916 45.440117,116.31153 47.970724,132.27789 c 2.530606,15.96637 10.575523,30.95542 22.261919,42.12488 11.872532,11.34737 27.626568,18.78134 44.017797,19.80481 16.39122,1.02347 33.2694,-4.58977 45.1767,-15.90064 7.17976,-6.82013 12.47618,-15.54623 15.53082,-24.96601 3.05465,-9.41977 3.89163,-19.51398 2.76327,-29.35216 C 175.4645,104.3124 165.41316,86.041905 151.76074,71.693957 141.08005,60.469142 127.94564,51.296381 113.11922,46.796272 98.292809,42.296163 81.709111,42.748515 67.817253,49.610718 c -8.150243,4.026 -15.218185,10.1537 -20.564997,17.505349 -5.346812,7.351649 -8.983506,15.906577 -10.816552,24.810232 -3.666093,17.807311 -0.02853,36.691491 8.30731,52.848671 6.281962,12.17619 15.300124,23.08734 26.748672,30.61418 11.448549,7.52685 25.396692,11.51523 39.020674,10.06273 14.22582,-1.51666 27.56285,-8.94571 37.08107,-19.62642 9.51822,-10.68071 15.30203,-24.44478 17.25446,-38.61736 2.54428,-18.46878 -1.50024,-38.020493 -12.33938,-53.188965 -5.41956,-7.584236 -12.46802,-14.022701 -20.6029,-18.574179 -8.13489,-4.551479 -17.35302,-7.196021 -26.67075,-7.464644 C 95.799146,47.708287 86.330146,49.873868 77.847578,54.015454 69.365009,58.157039 61.87082,64.25205 55.906976,71.569103 43.979288,86.203209 38.433187,105.50107 39.013979,124.3714 c 0.495754,16.10739 5.471571,32.36334 15.735872,44.78662 5.132151,6.21165 11.537999,11.40212 18.797934,14.89738 7.259935,3.49526 15.375573,5.27041 23.422734,4.86216 7.682801,-0.38977 15.225491,-2.76161 21.888531,-6.60625 6.66303,-3.84463 12.45199,-9.14111 17.0938,-15.27551 9.28361,-12.26881 13.84408,-27.65662 14.87857,-43.00716 1.01903,-15.12117 -1.33512,-30.714162 -8.54593,-44.044296 C 135.07469,66.654209 122.69224,55.806935 107.97689,52.181111 99.41459,50.071383 90.286909,50.433315 81.852423,53.006908 73.417937,55.5805 65.687149,60.338386 59.432711,66.554972 46.923836,78.988144 40.687668,97.035456 41.205994,114.66461 c 0.422851,14.3819 5.174687,28.64958 13.693252,40.24491 8.518565,11.59534 20.798894,20.43499 34.583081,24.55979 13.770683,4.12076 28.941843,3.46822 42.260263,-1.93845 13.31841,-5.40668 24.67917,-15.55114 31.4409,-28.23543 7.07943,-13.28027 9.01444,-29.21248 5.36296,-43.81215 -3.65148,-14.599681 -12.84609,-27.733276 -25.28999,-36.196917 -14.01024,-9.528978 -31.90127,-12.977571 -48.553497,-9.848422 -16.65223,3.129149 -31.9218,12.687596 -42.431,25.978383 -11.239105,14.213885 -17.034392,32.854046 -14.80997,50.837486 2.224423,17.98343 12.731828,34.97896 28.355818,44.15736 15.1175,8.88086 34.213839,10.06422 50.798109,4.37472 16.58427,-5.6895 30.59968,-17.87596 39.75794,-32.82703 6.1638,-10.06255 10.25517,-21.42902 11.58797,-33.15382 1.3328,-11.72481 -0.12346,-23.796433 -4.51489,-34.749189 C 159.05552,73.103096 151.7048,63.306846 142.21784,56.289368 132.73088,49.271891 121.11432,45.093565 109.31805,44.784746 96.281885,44.443468 83.257581,48.845632 72.767184,56.59222 62.276786,64.338808 54.313401,75.328991 49.695095,87.524454 c -6.787294,17.923066 -6.191312,38.712606 2.506115,55.790616 4.348713,8.53901 10.637122,16.09955 18.32096,21.82532 7.683838,5.72578 16.758025,9.5981 26.229397,11.05378 12.500033,1.92116 25.660303,-0.46756 36.566763,-6.86998 10.90646,-6.40241 19.44857,-16.80995 23.37294,-28.83247 3.11147,-9.53215 3.32506,-19.97286 0.71631,-29.65468 -2.60875,-9.68181 -8.01676,-18.576242 -15.33398,-25.432002 -7.31721,-6.855761 -16.51374,-11.663586 -26.29464,-13.872012 -9.7809,-2.208425 -20.120544,-1.824508 -29.743873,0.99234 -14.49339,4.242366 -27.38809,14.25856 -34.276303,27.697624 -3.444107,6.71954 -5.386856,14.21843 -5.515835,21.76809 -0.128979,7.54966 1.567075,15.1385 5.007183,21.86008 6.16334,12.04247 17.918016,20.91389 31.032525,24.23316 13.114509,3.31927 27.387573,1.22493 39.353523,-5.08569 7.76147,-4.09325 14.61854,-9.92087 19.80315,-17.00005 5.18461,-7.07919 8.67943,-15.40617 9.96931,-24.08553 1.28988,-8.67936 0.35909,-17.69585 -2.79993,-25.88216 -3.15903,-8.186306 -8.55222,-15.516206 -15.50849,-20.8646 C 122.30125,66.863401 107.82121,63.629951 94.465802,66.311184 81.110398,68.992417 69.0729,77.478856 61.850147,89.028214 c -4.090554,6.540895 -6.68584,14.023446 -7.427186,21.702406 -0.741346,7.67895 0.381257,15.54263 3.331423,22.67092 2.950166,7.12829 7.730966,13.50295 13.807819,18.25561 6.076854,4.75267 13.441259,7.86294 21.097594,8.80976 12.044753,1.48951 24.547063,-2.5148 33.889513,-10.26163 9.34244,-7.74683 15.52433,-19.04612 17.63259,-30.9981 2.46155,-13.95483 -0.62003,-28.834009 -8.53355,-40.588693 C 127.73482,66.863803 115.0555,58.390771 101.14154,55.70782 85.959359,52.780325 69.621252,56.848488 57.424864,66.352011 45.228476,75.855535 37.318348,90.589344 35.877646,105.98393 c -1.440702,15.39458 3.539898,31.2439 13.326567,43.21428 9.78667,11.97038 24.226614,19.97205 39.529268,22.18511 9.114846,1.31818 18.531869,0.63812 27.312959,-2.13865 8.78109,-2.77676 16.9088,-7.66047 23.36332,-14.22987 6.45453,-6.56941 11.21013,-14.82326 13.49379,-23.74531 2.28367,-8.92204 2.06955,-18.49242 -0.77041,-27.25328 C 147.45413,89.582129 135.52137,77.804152 121.16445,72.893506 106.80752,67.98286 90.365827,69.902171 77.292257,77.603963 65.472866,84.566903 56.38233,96.245941 53.156103,109.57906 c -3.226227,13.33311 -0.351962,28.14515 8.130346,38.9262 4.596438,5.84209 10.716071,10.45228 17.542607,13.39434 6.826535,2.94205 14.343967,4.22379 21.768484,3.85794 14.84903,-0.73172 29.0395,-8.14344 38.98185,-19.19689 6.54192,-7.27301 11.37087,-16.12492 13.64945,-25.63815 2.27859,-9.51322 1.96822,-19.67432 -1.17426,-28.938129 -3.14248,-9.263811 -9.14584,-17.581555 -17.12482,-23.241003 -7.97897,-5.659448 -17.91694,-8.584768 -27.67205,-7.855957 -7.15261,0.534376 -14.128697,2.997665 -20.13728,6.914595 -6.008583,3.91693 -11.050611,9.267278 -14.770145,15.400016 -7.43907,12.265475 -9.407027,27.435898 -6.769019,41.536348 2.443354,13.06 8.838324,25.51246 18.741421,34.37035 9.903098,8.85788 23.384823,13.88401 36.616873,12.68133 10.83862,-0.98514 21.19658,-6.10621 28.79487,-13.89801 7.59829,-7.7918 12.43052,-18.16168 13.83482,-28.95399 1.40429,-10.79232 -0.576,-21.95453 -5.31127,-31.753685 C 153.52271,87.385211 146.0812,78.957363 137.12974,72.767244 126.71215,65.563268 114.17148,61.369545 101.50616,61.255078 88.840842,61.140611 76.111147,65.169217 66.051575,72.865214 54.21423,81.921283 46.374369,95.951553 44.609913,110.75094 c -1.764456,14.79938 2.504097,30.18408 11.435107,42.11606 11.08823,14.81406 29.257935,24.00447 47.75794,24.3986 18.5,0.39413 36.95292,-7.93791 49.07521,-21.91845 10.14615,-11.70147 15.84869,-27.18735 15.61159,-42.67323 -0.2371,-15.485874 -6.4342,-30.823351 -17.09616,-42.056837 -9.11274,-9.601217 -21.33173,-16.137578 -34.315,-18.718332 -12.98326,-2.580754 -26.673351,-1.242499 -39.0359,3.489594 -14.71711,5.633364 -27.608041,16.171836 -35.552901,29.780926 -7.94486,13.60909 -10.773876,30.238889 -7.210221,45.589079 3.065214,13.20319 10.719323,25.17338 20.912843,34.10713 10.193521,8.93376 22.838054,14.88969 36.064244,17.85411 13.512025,3.02848 27.916675,2.94905 40.957085,-1.70865 13.04042,-4.65771 24.57767,-14.14849 30.3552,-26.73287 5.7767,-12.58258 5.37001,-27.83361 -1.06908,-40.09043"
       id="path2666"
       inkscape:connector-curvature="0"
       inkscape:path-effect="#path-effect2668;#path-effect2670"
       inkscape:original-d="m 67.35192,81.046221 c -7.319841,6.939108 -9.773875,15.271438 -14.432555,24.588799 -1.500675,3.00134 -0.534538,13.18074 -0.534538,17.10525 0,3.584 -0.98747,9.78492 0.534538,12.82893 4.476596,8.9532 7.149483,16.97166 11.225321,25.12334 3.282132,6.56426 10.983949,8.31125 15.501633,12.82894 0.527227,0.52722 2.283137,0.14498 2.672693,0.53453 4.85212,4.85212 21.141598,6.6081 28.330568,4.81086 6.5726,-1.64315 14.096,1.00308 20.31249,-1.06908 4.11147,-1.37049 7.13607,-6.18282 10.69078,-8.55263 3.49408,-2.32938 7.6978,-5.3995 10.15624,-9.08716 4.67386,-7.0108 15.63072,-29.54692 12.82894,-37.95227 -1.26436,-3.79307 -2.49021,-7.47061 -3.74178,-11.22532 -0.9091,-2.72732 -4.28923,-6.16658 -5.87992,-8.55263 -2.57853,-3.867778 -5.18688,-11.601334 -7.48355,-13.898013 -7.10668,-7.106671 -14.75946,-11.156105 -24.5888,-14.432555 -7.77671,-2.592236 -15.38408,-9.784722 -24.588794,-7.483546 -6.778887,1.694722 -12.070739,5.805376 -18.708867,8.018087 -4.243764,1.414587 -17.126424,8.594973 -18.708868,11.759858 -3.060207,6.120416 -4.199217,14.201269 -6.414468,20.847019 -1.013121,3.03937 1.420286,7.85021 0,10.69079 -3.24272,6.48544 -7.023941,14.74229 -4.276312,22.98517 5.328425,15.98528 17.145457,28.1658 32.072341,33.14142 5.536991,1.84567 12.636175,-0.77697 18.174328,1.06908 1.05876,0.35292 2.75246,-0.49465 3.74177,0 5.30509,2.65255 27.80652,-1.07956 31.53781,-4.81085 7.45885,-7.45885 14.14001,-16.22763 17.63979,-26.72695 0.36702,-1.10106 2.01002,-2.21323 2.67269,-3.20724 3.64433,-5.46649 9.88385,-14.7152 7.48355,-21.91609 -1.20588,-3.61763 -8.13561,-17.22278 -10.69078,-19.77795 -0.50208,-0.502076 -1.85552,-0.755687 -2.13816,-1.603618 -1.5446,-4.633804 -5.93374,-7.296991 -8.55262,-11.225321 C 135.33969,75.58552 123.18668,67.585465 112.2532,63.940972 110.43913,63.33628 108.60703,63.7215 106.90781,62.871894 103.22448,61.03023 87.358629,65.468332 83.922631,66.613666 77.675575,68.696019 67.636267,87.392379 66.282842,92.80608 c -2.149713,8.59886 -9.87338,14.1185 -12.828937,22.98518 -2.471859,7.41557 0.630063,21.57261 3.741772,27.79603 1.748203,3.4964 -0.485251,13.51133 1.069078,18.17433 0.943814,2.83143 3.33906,5.47721 5.345393,7.48354 12.072834,12.07284 27.61244,6.29749 41.694042,1.60362 2.63213,-0.87737 5.92173,-0.19211 8.55263,-1.06908 6.50047,-2.16682 13.5741,-2.59171 20.31248,-4.27631 6.9748,-1.7437 28.12452,-23.97066 30.46873,-31.00326 1.97047,-5.91144 1.97418,-15.45903 0,-21.38157 -1.60163,-4.80488 -5.76701,-9.28295 -6.94901,-12.82893 -6.6753,-20.025914 -33.36155,-29.721951 -51.31575,-34.210502 -1.26547,-0.316367 -2.09102,0.255485 -3.20723,0.534538 -2.34716,0.58679 -5.113209,0.06047 -7.483551,0.53454 -6.563346,1.31267 -12.051987,6.269022 -17.639789,9.621703 -1.82454,1.094724 -5.989576,3.986525 -8.018084,4.276312 -0.881946,0.125992 -1.89058,-0.426609 -2.672696,0 -1.379755,0.752594 -12.529042,9.400021 -13.898015,11.225321 -10.502201,14.002938 -5.839449,29.521088 -1.069078,43.832198 1.458809,4.37643 -0.987668,10.8536 1.069078,14.9671 3.612761,7.22552 12.338979,14.57733 20.312483,16.57071 3.359206,0.8398 6.849941,0.77704 10.156243,1.60361 3.689368,0.92235 8.07049,-0.92234 11.759858,0 18.293651,4.57341 31.988811,-3.49454 48.643051,-10.15624 6.00384,-2.40153 15.65089,-6.37108 19.24341,-11.75986 4.64328,-6.96492 6.41447,-16.27423 6.41447,-24.58879 0,-5.4641 0.8985,-12.10102 -1.60362,-17.10525 -10.44183,-20.883659 -27.10419,-29.894864 -48.64305,-35.279579 -4.77163,-1.192909 -11.94975,-4.49611 -17.10525,-3.207235 -4.70735,1.176835 -7.839847,3.474456 -11.759861,6.414469 -3.097365,2.323023 -8.358115,4.179056 -11.759861,5.879928 -1.528643,0.764323 -8.305014,3.733911 -9.621702,3.207234 -0.827178,-0.33087 -1.292977,-1.885344 -2.138156,-1.603616 -1.320213,0.440071 -1.616094,2.301573 -2.672694,3.207234 -1.685007,1.444292 -4.693288,2.020591 -6.414471,3.741772 -4.36309,4.363093 -9.538692,20.644523 -8.018084,26.726953 0.833959,3.33583 1.406604,9.34067 0.534538,12.82894 -2.279137,9.11655 -2.26118,22.2456 2.672696,30.46872 7.632576,12.72096 22.978041,19.59858 36.883194,21.9161 4.271918,0.71199 8.650459,1.837 12.828941,2.6727 6.14135,1.22827 11.43538,-2.07326 17.10525,-3.20723 8.61639,-1.72328 17.71892,-1.37592 25.65787,-5.3454 4.6095,-2.30474 8.08892,-8.90843 11.22532,-12.82893 16.97831,-21.22289 20.94846,-51.7918 10.15624,-76.973625 -7.48268,-17.459589 -20.65321,-29.521038 -40.62496,-26.192413 -4.91536,0.819226 -9.5693,2.931231 -14.43256,3.741774 -5.29885,0.883142 -11.67615,6.921103 -16.570711,8.552625 -5.041926,1.680641 -10.958904,0.980273 -16.03617,2.672693 -4.455623,1.48521 -8.519039,3.908759 -12.828937,5.345391 -1.355209,0.451736 -2.184863,2.696048 -3.207234,3.207234 -12.390557,6.195279 -19.715231,32.385921 -17.105252,45.435821 1.290678,6.45338 5.218621,13.55081 9.087165,18.70886 2.220796,2.96107 3.076578,7.13116 5.34539,10.15625 6.456672,8.60889 14.83147,15.43382 24.588796,20.31248 5.92138,2.96069 11.46417,4.33603 17.639793,5.87993 2.01238,0.5031 4.40208,-0.50309 6.41446,0 13.0908,3.2727 23.11912,-9.88958 28.33057,-20.31248 2.5424,-5.08479 5.45832,-10.29922 6.41447,-16.03618 1.3071,-7.84261 -0.24033,-16.19777 1.06908,-24.05425 1.81119,-10.86717 -0.65166,-38.999332 -7.48355,-48.108515 -2.40187,-3.202504 -5.2378,-7.375959 -8.01808,-10.156243 -1.79612,-1.796116 -4.68569,-2.641404 -6.94901,-3.207234 -1.82489,-0.456221 -3.42783,-1.658766 -5.34539,-2.138156 -13.99371,-3.49843 -30.884108,7.364388 -40.090427,16.570711 -0.61263,0.612629 -7.722484,6.949006 -8.018087,6.949006 -0.734653,0 -1.573779,-1.004853 -2.138156,-0.534538 -0.865714,0.721429 -0.509977,2.228805 -1.069078,3.207234 -0.640271,1.120474 -2.833648,2.530941 -3.741772,3.741772 -5.683284,7.577712 -11.060724,17.515943 -13.363477,26.726953 -1.3951,5.5804 -0.457989,24.69086 2.672694,28.86511 11.46784,15.29045 33.427534,29.98187 52.384823,33.14142 9.02364,1.50394 23.08411,-2.98943 31.00327,-6.94901 2.60999,-1.30499 6.02592,-1.15667 8.55262,-2.67269 8.03199,-4.8192 14.24392,-8.46884 18.17433,-17.63979 3.51044,-8.19103 4.1668,-18.62538 3.20724,-27.26149 -0.49188,-4.42685 0.0175,-8.94742 -0.53454,-13.36348 -1.69465,-13.55717 -15.81094,-31.785247 -26.19242,-40.090428 -4.78619,-3.828957 -9.68503,-3.773437 -14.96709,-6.414468 -5.56772,-2.783861 -11.82918,-4.264758 -18.17433,-3.207234 -5.364711,0.894119 -21.028198,12.08238 -26.726949,15.501633 -3.663403,2.198042 -7.801933,3.751834 -11.225321,6.414468 -7.695518,5.985402 -16.586568,19.338559 -18.174327,28.865109 -0.800838,4.80502 0.410244,9.82073 1.069078,14.43255 0.918723,6.43107 1.097333,13.07305 3.741772,19.24341 1.7048,3.97787 5.291891,7.95388 8.018086,11.22532 3.11422,3.73706 5.62849,8.23041 9.621703,11.22532 8.920935,6.6907 21.958935,11.76598 33.141418,13.36348 11.58241,1.65462 27.57638,-1.86724 37.41774,-8.01809 5.3062,-3.31638 9.96369,-8.45635 15.50163,-11.22532 4.90755,-2.45377 12.87803,-5.97811 15.50163,-11.22532 6.06676,-12.13351 4.71958,-27.5049 0,-40.09043 -4.95324,-13.208629 -18.43361,-35.676485 -31.5378,-42.228584 -3.33324,-1.666621 -6.83081,-3.148137 -10.15624,-4.81085 -6.41848,-3.209239 -13.40262,-5.87434 -20.84703,-4.810852 -7.40238,1.057484 -15.848497,4.218625 -21.916099,8.552624 -3.050429,2.178878 -5.438704,5.259319 -8.552625,7.483546 -3.030336,2.164528 -6.250365,5.450637 -9.621702,6.949009 -1.02978,0.457679 -2.335056,0.355478 -3.207234,1.069078 -1.186291,0.9706 -1.654384,2.596174 -2.672694,3.741772 -1.4571,1.639237 -3.787553,2.718475 -5.345393,4.276315 -1.964669,1.964669 -3.996907,5.576252 -4.81085,8.018084 -1.544452,4.633358 -4.473744,8.976368 -5.87993,13.898018 -4.789369,16.76279 -3.029077,34.86378 5.87993,49.71213 3.028183,5.04697 9.127337,7.96468 13.898015,10.69078 6.594956,3.76855 12.889002,8.09241 20.847023,9.08716 20.772359,2.59655 54.632249,-5.2147 68.420999,-22.45064 6.70341,-8.37925 9.22952,-19.17082 10.69078,-29.39964 0.46132,-3.22927 1.67579,-6.38514 2.13816,-9.62171 1.49957,-10.49698 -4.20886,-23.746004 -10.15624,-32.072341 -10.88739,-15.242336 -29.78916,-27.950035 -48.10852,-31.003263 -2.71829,-0.453049 -5.69675,-1.640253 -8.55262,-1.069078 -3.46384,0.692766 -6.711695,2.346094 -10.156247,3.207234 -5.520264,1.380066 -10.671019,2.25697 -15.501633,5.87993 -5.527074,4.145307 -9.08573,10.154809 -13.898014,14.967093 -28.015152,28.015155 -22.433836,67.148185 11.759858,87.664405 3.060007,1.836 7.110338,4.21411 10.690781,4.81085 9.042365,1.50706 39.642985,4.24728 47.573975,1.60362 9.25531,-3.08511 14.78138,-11.64843 22.98518,-16.57071 8.60047,-5.16029 16.39341,-11.23062 18.17433,-21.9161 C 178.21837,117.16277 150.95632,75.346551 137.91107,64.47551 123.95366,52.844334 92.969544,44.935531 76.439084,54.853808 69.15509,59.224203 66.470558,69.004788 62.006529,75.700831 54.067559,87.609285 45.748926,102.77897 42.228584,116.86034 c -1.721524,6.8861 4.784619,21.49853 7.483547,27.79603 2.511671,5.86056 11.780623,15.77928 17.639789,18.70886 9.028332,4.51417 37.98208,9.99926 48.10851,8.55263 8.44739,-1.20677 16.33723,-5.6605 24.5888,-8.01809 5.01407,-1.43259 19.68112,-5.54037 22.45064,-10.15624 13.26901,-22.11502 -0.59036,-48.75469 -10.69078,-68.955537 -2.85584,-5.711677 -6.11508,-12.529547 -10.69078,-17.105249 -6.47459,-6.474595 -17.77236,-14.031193 -26.19242,-17.639789 -7.53503,-3.229298 -17.59298,-0.860047 -24.588791,2.138156 -4.990084,2.138609 -10.823667,4.142229 -15.501633,6.949009 -12.410874,7.446526 -18.148533,34.387485 -21.916101,47.57397 -2.641796,9.24629 -8.607049,18.91686 -6.949006,28.86511 1.568516,9.41111 6.53583,16.65039 12.294396,24.05426 13.950151,17.93591 27.650307,24.05426 50.246675,24.05426 8.5231,0 14.91068,-0.52326 22.98518,-2.13816 2.91757,-0.58351 5.5741,-2.71081 8.55262,-3.20723 1.93725,-0.32288 4.67056,-0.73166 6.41447,-1.60362 27.07503,-13.53752 21.96984,-51.53973 9.6217,-73.76639 C 149.26381,90.683452 139.29095,81.465342 128.82391,72.493597 119.44697,64.456217 109.93872,56.93226 96.751567,59.13012 89.598158,60.322356 85.661068,66.813524 79.646319,69.8209 c -6.244723,3.122361 -12.95477,6.046174 -18.708868,10.156243 -3.466965,2.476405 -6.378831,5.315693 -9.621702,8.018084 -5.21653,4.347109 -11.396443,6.82081 -15.501633,12.294403 -3.196741,4.26232 -2.138156,10.4995 -2.138156,15.50163 0,3.21299 -1.343925,6.9187 -0.534538,10.15624 1.316726,5.2669 6.309942,10.45844 9.621703,14.43255 12.27765,14.73319 30.13771,27.67239 49.71213,30.46873 9.555965,1.36514 22.924115,0.8919 31.537805,-4.27631 2.55057,-1.53034 5.15021,-3.12917 8.01809,-4.27631 6.19498,-2.478 14.27506,-2.51521 19.2434,-7.48355 7.23992,-7.23992 8.55262,-22.90561 8.55262,-32.60688 0,-10.00042 -7.56551,-23.615359 -13.89801,-31.003266 -2.55227,-2.977645 -5.00615,-6.383615 -6.94901,-9.621705 -1.43319,-2.388659 -4.37803,-3.648361 -6.41447,-5.34539 C 119.96452,65.734397 104.8818,59.298866 88.733481,56.991964 c -3.904856,-0.557837 -7.459157,1.132848 -11.225318,1.603618 -2.808177,0.35102 -5.785536,-0.01889 -8.552625,0.534538 -14.014153,2.802832 -25.30667,16.784978 -27.261491,30.468725 -1.670688,11.694805 3.498815,27.358705 9.087162,37.417735 1.648589,2.96746 4.101163,5.17206 5.87993,8.01808 7.033713,11.25394 15.775898,28.06564 29.399648,32.60689 15.935823,5.31194 26.541033,1.32804 40.090433,-6.41447 10.86243,-6.20711 22.15628,-9.80302 30.46872,-19.77795 14.13096,-16.95715 12.14843,-43.58255 0,-60.937449 -3.44886,-4.926944 -7.74673,-8.949042 -11.75986,-13.363475 C 140.27044,62.099602 135.04623,56.361348 128.82391,53.250189 120.37363,49.025047 97.931186,43.559401 89.268021,48.973877 79.461124,55.103191 74.396588,64.983031 67.88646,74.097212 61.777205,82.65017 54.676029,91.277862 51.315749,101.3587 c -1.281848,3.84555 -0.933241,8.27215 -1.603618,12.2944 -0.626708,3.76026 -2.243434,8.4555 -1.603616,12.2944 2.874719,17.24831 13.206793,33.8453 28.330569,43.29766 5.669077,3.54318 12.754684,6.55659 19.243405,7.48355 3.036668,0.43381 6.058171,1.70544 9.087161,2.13816 13.32894,1.90413 26.04911,-6.2271 37.95228,-10.69078 7.18031,-2.69262 14.04847,-3.35769 19.77794,-9.08717 2.75351,-2.75351 4.3375,-6.68577 5.87993,-10.15624 2.34166,-5.26873 5.29441,-10.71548 5.87993,-16.57071 2.35735,-23.57349 -5.71713,-51.001905 -24.05426,-66.282842 -2.00017,-1.666814 -3.47727,-3.609525 -5.87993,-4.810852 -8.67953,-4.339767 -27.20851,-11.353419 -36.88319,-7.483546 -4.27383,1.709531 -8.187576,5.671327 -12.294398,8.018086 -4.676606,2.672345 -10.247606,5.204667 -14.432555,8.552625 -9.617165,7.693731 -17.621449,20.810338 -22.98518,31.537799 -1.364379,2.72877 -4.214402,4.62512 -5.34539,8.01809 -2.720734,8.1622 6.719517,31.5371 10.690781,38.48681 2.075174,3.63156 5.610521,6.6796 8.552624,9.6217 6.307,6.307 13.155409,14.48697 22.450642,16.03617 12.737796,2.12297 23.701056,-5.70332 34.745036,-11.22531 6.73146,-3.36574 14.19434,-4.69175 20.84702,-8.01809 8.45547,-4.22774 16.11281,-23.14035 17.10525,-32.07234 1.66412,-14.97701 -10.74051,-27.858195 -19.2434,-38.486815 -7.84319,-9.803982 -16.83604,-23.175253 -28.86511,-28.330569 -2.96361,-1.270119 -6.51557,-1.785229 -9.6217,-2.672697 -4.05378,-1.158221 -8.52927,-2.217854 -12.82894,-1.603616 -5.820326,0.831475 -21.708308,13.090335 -26.726954,17.105249 -7.506922,6.005539 -27.936433,18.735937 -30.468726,28.86511 -1.570609,6.282428 -1.217462,15.784088 0.53454,21.916098 3.499422,12.24798 16.586393,37.29586 26.726952,44.90128 9.64316,7.23237 22.148606,9.98893 33.67596,12.2944 14.841298,2.96826 42.716808,-8.17632 52.384828,-19.77794 4.57586,-5.49104 8.29719,-13.73726 9.08716,-20.84703 1.84187,-16.5768 -1.88229,-33.31498 -6.41446,-49.177591 -0.92459,-3.236037 -0.69823,-6.452817 -1.60362,-9.621702 -4.29738,-15.040814 -12.31062,-19.053091 -24.5888,-26.726952 -3.36811,-2.10507 -6.57324,-4.757171 -10.69078,-5.34539 -30.901768,-4.414538 -48.248941,15.445002 -63.610147,38.48681 -1.62932,2.44398 -4.654283,4.214238 -6.414468,6.414471 -2.936753,3.67094 -6.677821,10.667274 -7.483546,15.501634 -1.155653,6.93391 1.79982,14.37384 3.741771,20.84702 1.942947,6.47648 1.612236,13.38933 3.741775,19.77794 3.365428,10.09629 9.485595,20.46633 17.639789,27.2615 8.452456,7.04371 17.17086,17.24708 28.865107,18.70886 13.151179,1.6439 27.238139,-7.2046 38.486809,-12.82893 18.85058,-9.42529 27.00288,-10.97825 35.81412,-31.53781 2.80137,-6.53652 1.05449,-20.94183 0,-27.79603 -3.9522,-25.689318 -26.32313,-56.626515 -50.78121,-66.817381 -6.4023,-2.667624 -13.4598,-3.207234 -20.312485,-3.207234 -11.559023,0 -24.350373,0.246766 -33.675959,8.018087 -5.298059,4.415049 -6.714599,13.429196 -9.621703,19.243405 -3.486565,6.97313 -12.370255,26.723413 -13.363477,33.675963 -1.908929,13.36251 11.88249,50.90384 21.381564,60.40291 10.477346,10.47735 36.429418,14.93219 50.78121,16.03617 17.03376,1.31029 33.74794,3.01062 47.57397,-9.08716 4.63381,-4.05459 6.86303,-8.9582 10.15625,-13.89802 20.14952,-30.22429 0.39976,-73.366625 -22.45065,-96.217026 C 141.59469,61.210118 133.85423,54.641405 124.01306,52.181111 112.52304,49.308607 79.933918,53.49713 71.093694,62.337354 62.677756,70.753292 55.77519,89.522958 52.384827,100.82417 c -3.76201,12.54003 -10.599965,23.26797 -9.087165,36.88319 2.248459,20.23612 42.131231,49.64192 62.006528,51.85029 10.44703,1.16078 22.82908,-4.21138 31.00327,-10.15624 12.4063,-9.02277 22.19805,-19.65577 27.79603,-34.2105 6.71117,-17.44906 4.27604,-52.91981 -5.34539,-68.955541 -7.98709,-13.311807 -24.69815,-27.658928 -40.62497,-29.934186 -36.606777,-5.22954 -62.724862,31.73843 -70.559155,63.075607 -1.468954,5.87581 -3.289168,12.00958 -2.672694,18.17433 0.6439,6.43901 5.301927,11.2876 7.483546,17.10525 10.808613,28.82297 26.115682,43.25691 58.799293,45.43582 11.67652,0.77843 33.60516,0.85491 43.29766,-6.41447 7.84237,-5.88177 10.15506,-17.63662 13.36348,-26.19241 14.19603,-37.85609 3.0535,-73.996215 -29.93419,-97.82065 C 131.21647,54.82967 124.84261,49.412604 117.06405,46.301183 105.70736,41.758507 88.642424,39.162111 76.973622,44.163027 51.793399,54.95455 32.030519,97.649587 34.2105,123.80935 c 1.049417,12.593 12.943856,22.03769 18.708865,32.60688 5.087897,9.32781 8.148915,20.96456 18.708867,25.65787 17.824667,7.92208 60.921198,4.29257 74.835468,-9.6217 6.38705,-6.38705 10.03292,-17.80438 12.82894,-26.19242 2.81041,-8.43123 5.81672,-16.69172 6.41447,-25.65787 C 167.50368,93.653535 150.50779,68.740318 128.28937,54.853808 112.03606,44.69549 98.565617,46.860983 81.784475,54.319267 75.643244,57.048704 69.323843,59.501693 64.144686,63.940972 35.787607,88.247039 30.802834,132.22836 51.850287,162.29616 c 2.766838,3.95262 4.556543,8.83285 8.018086,12.29439 9.402765,9.40277 36.168515,18.53167 48.643057,12.2944 11.06201,-5.531 18.26705,-18.21578 24.58879,-28.33057 C 144.8204,139.8021 158.20491,117.49225 152.87817,94.409698 149.95622,81.74792 138.7204,72.397159 129.35845,64.47551 122.8844,58.997468 116.6156,53.908853 107.97689,52.181111 71.068961,44.799527 54.550143,70.370003 45.435818,101.3587 c -3.387105,11.51616 -9.007022,24.00057 -6.949006,36.34866 2.25139,13.50835 14.929027,24.9675 26.192414,31.5378 8.071741,4.70852 41.142794,16.67595 50.781204,17.63979 3.68103,0.3681 7.67106,-0.0997 11.22533,-1.06907 29.91468,-8.15856 53.51458,-59.82965 41.69404,-88.198948 -4.14981,-9.959551 -16.44473,-22.2045 -25.12334,-28.330569 -27.1371,-19.155606 -54.184286,-22.254795 -79.111774,2.672693 -5.808475,5.808475 -11.2395,11.253682 -14.967093,18.708868 -9.184129,18.368256 -5.639573,47.065726 2.138156,65.213766 3.744661,8.73754 8.816123,21.82492 17.639789,26.72695 9.575837,5.31991 27.810732,2.43608 37.952272,0.53454 16.02473,-3.00464 35.52707,-9.64747 45.43582,-23.51972 13.05524,-18.27734 7.05241,-55.41627 -3.74178,-73.766389 C 144.53462,78.942776 139.44721,73.129835 134.1693,67.148206 124.20106,55.850861 114.3995,43.027639 98.355186,42.024871 74.012281,40.50344 59.064813,61.380089 51.850287,81.580759 46.115205,97.63899 39.832031,111.82066 43.832203,129.15474 c 3.583268,15.52749 15.928146,33.88921 30.468725,41.1595 6.693797,3.3469 15.145428,4.75605 22.450639,5.87993 10.288763,1.58289 20.933803,2.52716 31.003263,-1.06908 9.64284,-3.44387 17.41756,-10.4355 22.45064,-19.2434 15.69967,-27.47441 8.84669,-54.82227 -15.50163,-74.300931 -3.74715,-2.997719 -7.35491,-5.962444 -11.75986,-8.018084 -13.71474,-6.400215 -28.060815,-2.698623 -42.228583,0 -10.899429,2.076079 -23.489372,4.863137 -29.399648,15.501633 -15.381041,27.685872 -3.987199,64.108002 23.519717,79.111782 8.200668,4.47309 18.598832,9.25295 28.330574,7.48354 11.66098,-2.12018 19.59101,-15.06612 27.79603,-22.45064 4.70865,-4.23779 9.17214,-8.27795 12.29439,-13.89801 3.04213,-5.47583 3.8103,-12.11609 4.27632,-18.17433 1.38574,-18.01466 -2.82918,-32.046305 -14.43256,-45.97036 -3.8828,-4.659368 -8.30699,-10.287563 -13.89801,-12.828936 -11.09344,-5.042472 -25.057116,-0.04415 -34.745041,6.414468 -4.850252,3.233502 -9.039723,8.133681 -13.898015,11.225321 -0.950727,0.60501 -2.369611,0.315217 -3.207234,1.069078 -3.385902,3.047312 -8.256437,12.536252 -9.087165,17.105249 -3.571835,19.64511 11.706347,37.06131 24.054257,50.78121 11.203382,12.4482 14.238521,19.57657 31.537808,17.10525 1.81942,-0.25992 3.61527,-0.20402 5.34539,-1.06908 12.93827,-6.46914 22.79287,-38.72668 26.72695,-51.31575 4.57177,-14.629656 6.57992,-32.270522 -2.13816,-45.970356 -2.55416,-4.013679 -6.7429,-6.249696 -10.69078,-8.552624 -19.403,-11.318417 -45.864024,-2.440387 -59.86837,13.898014 -24.517053,28.603236 -23.676255,83.286766 15.501631,98.355186 36.386579,13.99484 60.919599,-22.18284 63.075609,-54.52298 0.55924,-8.38858 1.37398,-17.487974 -3.20724,-25.123338 -3.34846,-5.580775 -9.29167,-9.269865 -14.43255,-12.828937 -7.99063,-5.53198 -14.54904,-9.973656 -24.5888,-10.690781 -8.93074,-0.63791 -28.86491,5.345198 -35.279572,11.759859 -10.64383,10.64383 -21.915559,37.956067 -19.777945,52.919367 1.751484,12.26038 10.048137,20.0976 18.708867,27.79603 4.833133,4.29612 11.975362,9.84909 18.708868,10.69078 10.778792,1.34735 28.422472,-2.23006 36.348652,-10.15624 22.53966,-22.53966 33.66599,-66.611541 5.34539,-89.268024 -4.98379,-3.987035 -11.44736,-10.798862 -18.17433,-11.759858 -11.91165,-1.701665 -19.507084,8.335941 -27.796027,14.967092 -4.641284,3.713028 -9.79777,8.074663 -13.363475,12.828937 -9.299133,12.398843 -10.747269,38.476703 -6.414468,52.919363 3.227718,10.75907 27.285029,39.64106 40.62497,37.41774 9.07533,-1.51256 16.76099,-10.23178 21.9161,-17.10525 7.25901,-9.67868 14.01546,-21.55173 16.03617,-33.67596 2.34197,-14.05183 0.0442,-38.727919 -6.94901,-51.315751 C 133.93941,66.199852 121.74334,62.615063 111.18412,61.802816 101.10832,61.027754 89.817407,60.234604 80.180856,63.940972 57.935259,72.49697 50.125143,95.794929 47.039437,117.39487 c -0.86791,6.07537 -1.640771,14.29633 0,20.31249 2.193755,8.04378 7.78638,13.47475 12.828936,19.77795 4.346771,5.43346 8.421116,10.6754 14.432555,14.43255 3.118641,1.94915 6.718893,2.71057 10.156241,3.74177 24.743091,7.42293 51.449261,-1.21928 68.421001,-20.31248 2.28508,-2.57072 5.48843,-4.69038 7.48355,-7.48355 9.30202,-13.02284 10.73349,-38.85049 6.949,-53.988442 -1.73771,-6.95085 -7.41285,-12.740574 -11.75986,-18.174327 -5.19281,-6.491012 -11.84618,-14.599301 -19.2434,-18.708867 -7.04028,-3.911264 -22.09864,-3.45625 -29.93419,-2.672697 -9.225494,0.922552 -19.336538,-1.629129 -28.33057,1.069078 -3.259796,0.97794 -6.694003,1.911961 -9.621702,3.741775 -3.540943,2.213088 -5.825482,5.571823 -9.087165,8.018086 -6.085816,4.564362 -12.512508,9.377979 -17.105249,15.501631 -4.759912,6.346552 -7.85718,39.934953 -6.949006,48.108513 0.679498,6.11549 2.984328,12.13065 5.345391,17.63979 1.48282,3.45991 4.4422,6.02738 5.879927,9.6217 2.263992,5.65998 2.082904,14.03936 7.483547,17.63979 5.466056,3.64404 22.847855,4.33306 29.934188,5.34539 10.789346,1.54134 23.095039,7.03395 34.210499,4.81086 10.14473,-2.02895 21.9604,-6.45877 29.39965,-13.89802 3.15404,-3.15404 5.88582,-6.9549 9.08716,-10.15624 2.23596,-2.23596 6.08278,-4.01863 6.94901,-7.48355 1.44264,-5.77055 0.21635,-11.67071 1.06908,-17.63979 1.16474,-8.1532 1.00192,-14.60044 -2.13816,-22.45064" />
  </g>
</svg>
