<?xml version="1.0" encoding="UTF-8" standalone="no"?>
<!-- Created with Inkscape (http://www.inkscape.org/) -->

<svg
   xmlns:dc="http://purl.org/dc/elements/1.1/"
   xmlns:cc="http://creativecommons.org/ns#"
   xmlns:rdf="http://www.w3.org/1999/02/22-rdf-syntax-ns#"
   xmlns:svg="http://www.w3.org/2000/svg"
   xmlns="http://www.w3.org/2000/svg"
   xmlns:sodipodi="http://sodipodi.sourceforge.net/DTD/sodipodi-0.dtd"
   xmlns:inkscape="http://www.inkscape.org/namespaces/inkscape"
   width="50mm"
   height="50mm"
   viewBox="0 0 50 50"
   version="1.1"
   id="svg2115"
   inkscape:version="0.92.4 (5da689c313, 2019-01-14)"
   sodipodi:docname="bookmark_05.svg">
  <defs
     id="defs2109">
    <inkscape:path-effect
       effect="simplify"
       id="path-effect2668"
       is_visible="true"
       steps="1"
       threshold="0.0270909"
       smooth_angles="360"
       helper_size="0"
       simplify_individual_paths="false"
       simplify_just_coalesce="false"
       simplifyindividualpaths="false"
       simplifyJustCoalesce="false" />
    <inkscape:path-effect
       effect="spiro"
       id="path-effect2670"
       is_visible="true" />
  </defs>
  <sodipodi:namedview
     id="base"
     pagecolor="#ffffff"
     bordercolor="#666666"
     borderopacity="1.0"
     inkscape:pageopacity="0.0"
     inkscape:pageshadow="2"
     inkscape:zoom="2.8"
     inkscape:cx="81.871006"
     inkscape:cy="175.62446"
     inkscape:document-units="mm"
     inkscape:current-layer="layer1"
     showgrid="false"
     inkscape:window-width="2560"
     inkscape:window-height="1417"
     inkscape:window-x="-8"
     inkscape:window-y="-8"
     inkscape:window-maximized="1" />
  <metadata
     id="metadata2112">
    <rdf:RDF>
      <cc:Work
         rdf:about="">
        <dc:format>image/svg+xml</dc:format>
        <dc:type
           rdf:resource="http://purl.org/dc/dcmitype/StillImage" />
        <dc:title></dc:title>
      </cc:Work>
    </rdf:RDF>
  </metadata>
  <g
     inkscape:label="Layer 1"
     inkscape:groupmode="layer"
     id="layer1"
     transform="translate(0,-247)">
    <path
       transform="matrix(0.32096224,0,0,0.32607852,-9.1302624,232.80761)"
       style="fill:none;stroke:#fdfdfd;stroke-width:1.06500006;stroke-linecap:butt;stroke-linejoin:miter;stroke-miterlimit:4;stroke-dasharray:none;stroke-opacity:1"
       d="m 67.35192,81.046221 c -7.792276,8.450791 -13.003122,19.250659 -14.768717,30.609279 -1.765595,11.35861 -0.07889,23.23064 4.780494,33.64802 5.043621,10.81233 13.497329,20.01258 23.873715,25.90115 10.376386,5.88857 22.628748,8.42861 34.484618,7.09335 13.56396,-1.52763 26.51519,-8.18765 35.527,-18.43958 9.01181,-10.25194 13.96408,-24.01511 13.389,-37.65271 C 164.08211,109.02257 158.39092,96.160645 149.16784,86.724563 139.94477,77.28848 127.30002,71.324405 114.17346,69.98345 101.60257,68.69926 88.620516,71.635796 77.88352,78.298626 67.146525,84.961455 58.733822,95.324554 54.522983,107.23863 c -4.41375,12.48819 -4.135967,26.59989 0.905248,38.84825 5.041216,12.24835 14.82732,22.50022 26.890781,27.96913 11.95845,5.4213 25.989508,6.0638 38.421248,1.83926 12.43175,-4.22454 23.14552,-13.25532 29.48866,-24.75139 5.08322,-9.21264 7.37867,-19.90968 6.7224,-30.41116 -0.65626,-10.50148 -4.23824,-20.779402 -10.08476,-29.527541 -7.20445,-10.780006 -17.95972,-19.261984 -30.322,-23.171785 -12.36228,-3.909802 -26.267466,-3.090056 -37.823297,2.790028 -10.945403,5.569473 -19.48859,15.514943 -23.809109,27.010768 -4.320518,11.49583 -4.479177,24.4249 -0.919607,36.17864 5.754194,19.00041 21.502128,34.68197 40.554015,40.26335 13.837788,4.05388 29.243168,2.83784 42.043928,-3.79984 12.80076,-6.63769 22.76818,-18.72936 26.35137,-32.69643 3.27857,-12.77969 1.17317,-26.74452 -5.20896,-38.291721 C 151.35077,87.940984 140.84709,78.838281 128.73983,73.595782 117.43365,68.700152 104.68839,67.106904 92.561096,69.280776 80.433802,71.454649 68.981831,77.417514 60.398869,86.256617 50.609828,96.337793 44.686488,110.22478 44.784731,124.27632 c 0.09824,14.05155 6.380416,28.06388 17.190137,37.04193 9.537825,7.92167 22.119346,11.70944 34.517821,11.73752 12.398471,0.0281 24.623531,-3.51526 35.778911,-8.9264 9.93918,-4.8212 19.25923,-11.23688 26.28051,-19.76524 7.02128,-8.52836 11.61923,-19.30228 11.56779,-30.34894 -0.0361,-7.75747 -2.36211,-15.453306 -6.3876,-22.084683 -4.02548,-6.631378 -9.71893,-12.202783 -16.28698,-16.330783 -13.13609,-8.256002 -29.4434,-10.565491 -44.81382,-8.451518 -9.791283,1.346646 -19.382206,4.424119 -27.922839,9.398078 -8.540633,4.973959 -16.010381,11.869807 -21.299193,20.219127 -6.736485,10.634729 -9.785189,23.557299 -8.514169,36.081759 1.271019,12.52446 6.853301,24.5706 15.586186,33.63781 9.513296,9.8775 22.610796,16.09526 36.21963,17.7886 13.608835,1.69334 27.652345,-1.05252 39.892835,-7.23623 13.10407,-6.61998 24.24942,-17.2544 30.92859,-30.3284 6.67917,-13.074 8.74881,-28.55793 5.14181,-42.78925 C 169.76554,92.482528 163.27521,82.020163 154.48213,74.152907 145.68904,66.285651 134.64448,61.014821 123.0409,58.877323 110.05866,56.485861 96.352661,58.027655 84.298067,63.407663 72.243473,68.787671 61.907636,78.005853 55.343158,89.458597 48.76982,100.9268 46.0413,114.59237 47.916146,127.67722 c 1.874846,13.08486 8.379169,25.49331 18.215089,34.32411 9.342844,8.38811 21.600875,13.4634 34.138515,14.13918 12.53765,0.67577 25.26878,-3.05178 35.46466,-10.37934 12.77067,-9.178 21.34422,-24.04634 22.65558,-39.71816 1.31137,-15.67182 -4.73859,-31.851118 -16.17271,-42.648639 -9.60875,-9.07378 -22.74296,-14.22416 -35.95716,-14.439925 -13.214198,-0.215764 -26.39903,4.434626 -36.770044,12.626313 -8.298384,6.554592 -14.846229,15.373678 -18.410466,25.329681 -3.564237,9.95601 -4.088,21.02796 -1.163874,31.19041 3.642874,12.66037 12.577065,23.55997 23.884653,30.31969 11.307588,6.75973 24.840783,9.47259 37.972201,8.41368 11.35614,-0.91575 22.53291,-4.62444 31.93477,-11.05916 9.40186,-6.43473 16.97078,-15.62542 21.06844,-26.25602 4.20606,-10.91181 4.66859,-23.20979 1.40006,-34.43811 C 162.90733,93.852609 155.94335,83.750482 146.67955,76.613223 136.64712,68.883783 123.99,64.679543 111.32534,64.670345 98.660674,64.661147 86.056456,68.813934 75.7592,76.18688 65.443236,83.57322 57.435627,94.204631 53.44782,106.24932 c -3.987807,12.04469 -3.88731,25.44804 0.540623,37.33797 5.589273,15.00838 18.038124,27.19189 32.977569,32.96288 14.939448,5.771 32.116008,5.18632 46.851808,-1.08645 13.5006,-5.74697 24.97682,-16.20658 31.76607,-29.21426 6.78926,-13.00768 8.80186,-28.48012 5.36698,-42.7453 C 167.74209,90.177974 159.82491,78.046181 148.95814,69.691727 138.09137,61.337272 124.35539,56.806854 110.64958,56.991964 95.222845,57.200317 79.995357,63.397001 68.637918,73.839038 57.280478,84.281075 49.852982,98.84412 47.821946,114.13799 c -1.507546,11.35195 -0.08873,23.11181 4.308877,33.68539 4.397607,10.57357 11.789772,19.91932 21.210673,26.42978 13.058819,9.0245 29.865394,12.31665 45.431844,9.20864 15.56646,-3.10801 29.72504,-12.49953 38.91568,-25.44196 7.59905,-10.70113 11.84127,-23.75643 11.94881,-36.88077 0.10753,-13.12433 -3.92545,-26.257429 -11.40932,-37.039418 C 150.81406,73.417679 140.04586,65.095677 127.83108,60.637209 115.61631,56.178741 102.01125,55.608366 89.472647,59.052518 77.476611,62.347637 66.465106,69.337095 58.668224,79.030976 50.871343,88.724857 46.385593,101.108 46.538317,113.54743 c 0.190289,15.49914 7.592042,30.52103 18.916856,41.10441 11.324815,10.58339 26.312932,16.86419 41.683757,18.86349 11.73721,1.52667 23.91146,0.61611 34.95049,-3.65386 11.03902,-4.26997 20.87329,-12.03422 26.70956,-22.33134 3.87406,-6.83512 5.93204,-14.65347 6.19026,-22.50589 0.25822,-7.85242 -1.26203,-15.73106 -4.17663,-23.02711 C 164.98341,87.405039 153.70437,75.400614 140.51283,66.862938 130.39306,60.313335 118.97704,55.613114 107.03529,53.969427 95.093536,52.325741 82.620299,53.826718 71.738816,59.013285 58.314096,65.412064 47.702789,77.432266 42.91258,91.511377 c -4.790208,14.079113 -3.725882,30.030943 2.79174,43.398373 5.3381,10.94827 14.160564,20.06425 24.611268,26.32065 10.450704,6.25641 22.477685,9.70596 34.625412,10.59621 12.28699,0.90046 24.8861,-0.82556 36.07469,-5.98273 11.18859,-5.15717 20.88459,-13.8744 26.2904,-24.94499 6.82819,-13.98348 6.3271,-30.99773 1.3e-4,-45.215023 -6.32697,-14.217289 -18.09476,-25.662632 -31.82787,-32.981351 -10.03074,-5.345637 -21.24093,-8.631465 -32.60508,-8.850239 -11.364142,-0.218775 -22.868093,2.709638 -32.388261,8.919153 -10.341731,6.745378 -18.06479,17.206566 -22.16409,28.853336 -4.0993,11.646774 -4.662532,24.411694 -2.335767,36.537604 4.129053,21.51851 17.831803,41.30027 37.211011,51.52483 12.881072,6.79611 28.091467,9.29374 42.359827,6.37426 14.26835,-2.91947 27.44242,-11.35898 35.56984,-23.44427 5.32421,-7.91698 8.45544,-17.26213 9.1831,-26.77508 0.72767,-9.51295 -0.92917,-19.17524 -4.59249,-27.98466 C 158.38981,90.238618 143.0734,76.45074 125.29447,69.521631 112.51523,64.541089 98.290607,62.928867 84.906459,65.925408 71.52231,68.921949 59.084132,76.691825 51.315749,87.995227 c -6.649758,9.675744 -9.710486,21.701633 -8.805143,33.407173 0.905342,11.70554 5.718191,23.02886 13.280244,32.00965 9.126619,10.83889 22.33157,18.24588 36.390929,20.00973 14.059361,1.76385 28.823011,-2.2264 39.849371,-11.12562 9.68104,-7.81343 16.30183,-19.16502 18.98486,-31.31301 2.68303,-12.14798 1.51886,-25.02377 -2.67155,-36.737551 C 142.76611,78.651986 131.51835,64.8463 116.59347,57.668094 109.13103,54.07899 100.83918,52.170853 92.5605,52.353044 c -8.278677,0.18219 -16.529022,2.475826 -23.604962,6.777076 -6.515883,3.960809 -11.987116,9.589443 -15.894939,16.137242 -3.907822,6.547798 -6.258368,13.998661 -6.970067,21.590645 -1.423398,15.183973 3.824881,30.668303 13.294531,42.622583 9.61736,12.14074 23.651763,20.8287 38.914788,23.46143 15.263019,2.63274 31.609909,-0.9533 44.041979,-10.19098 12.55804,-9.33128 20.77708,-24.29259 21.85299,-39.9009 C 165.27073,97.241825 159.16431,81.269367 147.9056,70.405736 138.07348,60.918629 124.57439,55.434048 110.91891,54.98257 97.263439,54.531091 83.559528,59.036999 72.594694,67.188581 63.207714,74.16714 55.788229,83.791094 51.546459,94.691693 c -4.24177,10.900597 -5.275431,23.046127 -2.812194,34.480647 3.806923,17.672 16.146995,33.22888 32.338817,41.26735 16.191823,8.03848 35.881768,8.5035 52.571538,1.55772 13.50595,-5.62077 25.01878,-15.96861 31.89858,-28.87877 6.8798,-12.91016 9.04479,-28.29811 5.83457,-42.5704 C 168.21358,86.480577 159.84174,73.636895 148.21458,65.109276 136.58742,56.581656 121.79999,52.454565 107.44235,53.78473 92.650982,55.155078 78.507947,62.294761 68.456877,73.232695 58.405806,84.170629 52.498958,98.780823 51.900164,113.62346 c -0.534109,13.23926 3.135742,26.66963 10.62263,37.60168 7.486887,10.93205 18.796114,19.26066 31.55608,22.83087 15.621026,4.37073 33.066796,1.37223 46.537166,-7.66486 13.47036,-9.03709 22.81005,-23.88317 25.48702,-39.88172 2.86326,-17.11189 -1.89649,-35.318897 -12.61013,-48.965622 C 142.77929,63.897083 126.30992,54.973947 109.04597,53.250189 96.840806,52.031537 84.27381,54.334099 73.394537,59.999128 62.515264,65.664156 53.383143,74.696905 47.795305,85.616026 41.798272,97.334748 39.97136,111.07187 42.329504,124.02301 c 2.358143,12.95114 8.832219,25.06659 18.02114,34.49297 10.517795,10.78959 24.728302,18.08894 39.720716,19.59454 14.99241,1.50559 30.63909,-2.97037 42.0955,-12.7576 10.39996,-8.88471 17.04836,-21.80136 19.17454,-35.31345 2.12618,-13.51208 -0.12311,-27.54585 -5.48592,-40.129074 C 150.28286,76.834872 141.21336,65.076991 129.25144,57.400019 117.28952,49.723046 102.36492,46.369738 88.476921,49.394113 73.351821,52.68789 60.360428,63.345316 52.593035,76.735059 44.825641,90.124801 41.991589,106.01045 42.800314,121.4689 c 0.744271,14.22642 4.537638,28.40709 11.911053,40.59635 7.373414,12.18925 18.431139,22.29716 31.646987,27.61566 14.360876,5.7793 30.986906,5.63739 45.281326,-0.30436 14.29443,-5.94175 26.10253,-17.59587 32.31297,-31.77562 5.45685,-12.45915 6.61515,-26.621 4.10028,-39.98825 C 165.53806,104.24544 159.45164,91.670072 151.21344,80.84696 141.61961,68.242861 128.82391,57.776103 113.8565,52.591359 98.889091,47.406615 81.690778,47.881742 67.795062,55.485296 54.085196,62.987155 44.451953,76.992491 40.936433,92.220079 c -3.51552,15.227591 -1.209173,31.493471 5.058845,45.809551 10.058636,22.97382 30.636929,41.21507 54.811152,47.89184 11.90484,3.28804 24.64101,3.83959 36.64323,0.92698 12.00222,-2.91261 23.22207,-9.36742 31.27823,-18.72876 6.23839,-7.24907 10.5095,-16.13534 12.52142,-25.48514 2.01192,-9.34979 1.78413,-19.1455 -0.41279,-28.45357 C 176.4427,95.564857 164.21034,79.27354 148.60185,68.217284 138.0779,60.762657 125.90911,55.492706 113.14163,53.67163 100.37414,51.850553 87.014721,53.568625 75.434414,59.245024 60.401471,66.613826 48.906648,80.547561 43.738046,96.471574 38.569445,112.39559 39.59545,130.10199 45.792361,145.6547 c 5.593507,14.03832 15.438674,26.48513 28.275418,34.45882 12.836745,7.97369 28.665671,11.28259 43.481711,8.30823 16.67815,-3.34818 31.35011,-14.54209 40.13336,-29.11004 8.78326,-14.56796 11.86445,-32.23467 9.87267,-49.12857 C 165.59281,93.535803 158.6575,77.285675 146.92238,65.316005 135.18726,53.346335 118.51633,45.982415 101.77165,46.758024 92.479487,47.188435 83.337148,50.064856 75.359671,54.849143 67.382194,59.63343 60.570977,66.302335 55.437293,74.059578 45.169924,89.574064 41.87514,109.19463 44.901281,127.55112 c 2.515748,15.26046 9.328131,29.89392 19.939855,41.14568 10.611723,11.25175 25.061178,18.98213 40.415294,20.84271 12.34189,1.49556 25.11215,-0.81024 36.17112,-6.48988 11.05896,-5.67964 20.36504,-14.70503 26.41771,-25.56432 9.42533,-16.91029 10.61983,-37.92709 4.25686,-56.21116 C 165.73914,82.99007 152.16056,67.54016 135.41226,57.829894 123.45775,50.898956 109.77088,46.75218 95.952537,46.793331 82.134199,46.834483 68.22269,51.193846 57.381018,59.761595 46.87964,68.060423 39.541517,80.077554 36.166506,93.029726 c -3.375011,12.952174 -2.887621,26.778324 0.599273,39.700824 3.616856,13.40414 10.517768,26.02303 20.475797,35.69724 9.958029,9.67421 23.031052,16.28413 36.83934,17.72767 13.523504,1.41377 27.416514,-2.17479 38.905474,-9.44719 11.48896,-7.27239 20.57807,-18.11655 26.30625,-30.44829 7.1936,-15.48652 9.08419,-33.53441 4.40443,-49.956344 -4.67977,-16.421938 -16.08096,-30.987938 -31.30626,-38.719083 -12.1857,-6.18769 -26.49031,-7.90481 -39.905605,-5.29546 -13.415291,2.609351 -25.898784,9.45205 -35.697494,18.979065 -13.068447,12.70609 -21.37543,30.416452 -21.892665,48.636262 -0.517235,18.21981 7.008364,36.69542 20.70377,48.72309 8.54099,7.50093 19.29528,12.43463 30.541594,14.08775 11.246314,1.65313 22.945,0.0294 33.34544,-4.55791 15.91853,-7.02116 28.50577,-21.02075 34.2648,-37.43812 5.75903,-16.41736 4.73648,-35.01128 -2.33803,-50.90617 C 146.1201,77.921913 137.47326,67.467226 126.49975,60.467784 115.52624,53.468343 102.23183,50.024348 89.281002,51.322885 c -17.359423,1.740572 -33.47729,12.133078 -42.88999,26.822538 -9.4127,14.68946 -12.161088,33.310397 -8.162955,50.292567 3.238142,13.75409 10.770049,26.45514 21.240896,35.94312 10.470846,9.48798 23.830242,15.73024 37.816648,17.74044 11.253929,1.61747 22.925029,0.51134 33.575219,-3.46871 10.65018,-3.98004 20.24334,-10.85563 27.20545,-19.8443 8.92209,-11.51917 13.31897,-26.37954 12.45251,-40.9241 C 169.65232,103.33988 163.59752,89.213337 153.9253,78.316399 143.52323,66.597188 128.90911,58.619461 113.37658,56.549754 97.84406,54.480047 81.529087,58.412592 68.842935,67.610667 57.828946,75.596342 49.692933,87.3838 45.805885,100.42105 c -3.887047,13.03725 -3.558221,27.24549 0.60303,40.19782 3.882953,12.0861 11.139428,23.16168 21.078543,31.05884 9.939114,7.89717 22.579388,12.4961 35.270622,12.20665 12.91005,-0.29444 25.48883,-5.61577 35.33034,-13.97644 9.84151,-8.36066 17.01329,-19.63163 21.34646,-31.79632 6.4787,-18.18792 6.57087,-38.929759 -1.50878,-56.465246 C 153.88628,72.87861 147.86527,64.999606 140.30779,58.993115 132.75031,52.986624 123.65408,48.882301 114.10937,47.435929 101.62661,45.544336 88.587941,48.274426 77.613644,54.516393 66.639347,60.758359 57.729238,70.407788 51.850287,81.580759 c -5.808217,11.03854 -8.713873,23.606031 -8.212918,36.069331 0.500956,12.4633 4.421887,24.78864 11.320205,35.18085 7.67112,11.55642 19.116095,20.6929 32.311157,24.96926 13.195059,4.27636 28.076089,3.52074 40.486099,-2.67511 7.86811,-3.92825 14.66129,-9.95404 19.59385,-17.23471 4.93257,-7.28067 8.00411,-15.79541 8.9679,-24.53666 1.92758,-17.48249 -4.86471,-35.545746 -17.25369,-48.030385 C 128.38004,74.557998 113.62786,67.846293 98.475202,67.203751 83.322545,66.56121 67.937378,72.076275 56.870109,82.446011 49.364983,89.478114 43.870326,98.646474 41.27811,108.59925 c -2.592216,9.95278 -2.263745,20.65794 1.002967,30.41017 3.266713,9.75223 9.468684,18.51092 17.627049,24.77339 8.158365,6.26246 18.244972,9.99377 28.518474,10.47599 13.74798,0.64531 27.53081,-4.57632 37.95865,-13.55871 10.42784,-8.9824 17.54107,-21.54473 20.71055,-34.93792 3.24327,-13.705 2.35105,-28.637084 -4.04739,-41.183238 -3.19921,-6.273077 -7.73972,-11.884598 -13.34318,-16.14931 -5.60345,-4.264713 -12.27431,-7.160315 -19.24961,-8.125543 -6.85787,-0.948978 -13.942988,-0.02256 -20.395906,2.485583 C 83.606797,65.297801 77.789441,69.36774 73.082454,74.444667 63.668481,84.598521 58.9165,98.598693 58.77994,112.44445 c -0.134777,13.66495 4.201351,27.54552 13.090369,37.92504 4.444509,5.18976 9.97866,9.4649 16.193462,12.30453 6.214803,2.83963 13.108319,4.22742 19.930639,3.84903 7.23562,-0.40132 14.32951,-2.79034 20.42934,-6.70281 6.09982,-3.91247 11.20436,-9.32757 14.90168,-15.56016 7.39463,-12.46517 8.94243,-27.97518 5.42434,-42.0352 C 145.78413,90.372707 139.30367,79.38282 130.18095,71.256007 121.05824,63.129193 109.30769,57.936023 97.131246,56.93439 82.742226,55.75075 67.970747,60.53489 56.945245,69.856006 45.919742,79.177121 38.75471,92.907472 37.318201,107.27345 c -1.436509,14.36598 2.848489,29.20846 11.643904,40.65772 8.795415,11.44926 21.994824,19.4029 36.210369,21.92543 12.315098,2.1853 25.333286,0.32267 36.486286,-5.33842 11.15299,-5.66108 20.3641,-15.10567 25.63328,-26.44908 4.60762,-9.91921 6.18404,-21.30014 3.97154,-32.01116 -2.2125,-10.711007 -8.28851,-20.663013 -17.09428,-27.149875 -11.15324,-8.216149 -26.25341,-10.43245 -39.579123,-6.647591 -13.325713,3.784859 -24.755727,13.25776 -31.788207,25.19275 -6.448064,10.943166 -9.324935,24.150086 -6.9695,36.631366 2.355435,12.48128 10.185823,24.03593 21.414719,29.97245 5.836982,3.08591 12.450392,4.63601 19.052812,4.67132 6.602419,0.0353 13.187289,-1.42741 19.239859,-4.06552 12.10513,-5.27622 21.86507,-15.15333 28.43524,-26.60783 6.63749,-11.57186 10.23942,-25.21956 8.17713,-38.399515 -1.03114,-6.589977 -3.475,-12.984162 -7.31759,-18.436278 -3.84259,-5.452115 -9.09938,-9.938959 -15.19618,-12.644529 -5.76648,-2.558984 -12.21021,-3.495856 -18.49324,-2.926474 -6.28303,0.569383 -12.400765,2.622901 -17.880716,5.748726 -10.959902,6.25165 -19.163796,16.632251 -24.498209,28.0667 -5.595598,11.9943 -8.260562,25.69549 -5.42304,38.62308 1.418761,6.46379 4.209137,12.65431 8.334999,17.82836 4.125862,5.17405 9.603282,9.3066 15.812139,11.59649 10.392582,3.83289 22.348097,2.2459 32.107357,-2.99372 9.75926,-5.23962 17.42969,-13.85745 22.818,-23.53541 6.28658,-11.29135 9.67367,-24.35523 8.55669,-37.23032 C 149.85546,90.877027 144.03195,78.272558 134.22086,69.860771 124.31056,61.363922 110.72665,57.542303 97.741232,58.879991 84.755812,60.217679 72.470179,66.529928 63.258395,75.779446 52.65906,86.422199 46.052744,101.01758 45.33575,116.02091 c -0.716994,15.00333 4.528568,30.26025 14.532623,41.4644 11.623392,13.01775 29.353737,20.12595 46.793497,19.47802 17.43975,-0.64792 34.33559,-8.83285 46.2163,-21.61618 8.14457,-8.76334 14.04105,-19.68625 16.41013,-31.41304 2.36908,-11.72679 1.13314,-24.230667 -3.93686,-35.066959 C 160.25931,77.983566 151.42162,69.010041 140.93749,63.139322 130.45337,57.268603 118.38863,54.435038 106.37327,54.319267 92.916501,54.189608 79.412241,57.451756 67.607565,63.913263 55.802888,70.374769 45.739256,80.042447 39.007002,91.694837 31.639646,104.44648 28.34281,119.6066 30.305023,134.20221 c 1.962213,14.59562 9.277853,28.50568 20.554093,37.97821 10.067229,8.45691 22.928282,13.20622 35.986137,14.74271 13.057855,1.53648 26.333867,-0.006 39.115237,-3.08863 6.51029,-1.57036 12.96817,-3.57114 18.86262,-6.75004 5.89444,-3.1789 11.18205,-7.58322 14.99309,-13.09012 3.81104,-5.50689 6.05094,-12.04224 6.69898,-18.70782 0.64804,-6.66558 -0.28498,-13.37251 -1.33192,-19.98718 l -0.86079,-5.43853 -1.8226,-5.67317"
       id="path2666"
       inkscape:connector-curvature="0"
       inkscape:path-effect="#path-effect2668;#path-effect2670"
       inkscape:original-d="m 67.35192,81.046221 c -7.319841,6.939108 -9.773875,15.271438 -14.432555,24.588799 -1.500675,3.00134 -0.534538,13.18074 -0.534538,17.10525 0,3.584 -0.98747,9.78492 0.534538,12.82893 4.476596,8.9532 7.149483,16.97166 11.225321,25.12334 3.282132,6.56426 10.983949,8.31125 15.501633,12.82894 0.527227,0.52722 2.283137,0.14498 2.672693,0.53453 4.85212,4.85212 21.141598,6.6081 28.330568,4.81086 6.5726,-1.64315 14.096,1.00308 20.31249,-1.06908 4.11147,-1.37049 7.13607,-6.18282 10.69078,-8.55263 3.49408,-2.32938 7.6978,-5.3995 10.15624,-9.08716 4.67386,-7.0108 15.63072,-29.54692 12.82894,-37.95227 -1.26436,-3.79307 -2.49021,-7.47061 -3.74178,-11.22532 -0.9091,-2.72732 -4.28923,-6.16658 -5.87992,-8.55263 -2.57853,-3.867778 -5.18688,-11.601334 -7.48355,-13.898013 -7.10668,-7.106671 -14.75946,-11.156105 -24.5888,-14.432555 -7.77671,-2.592236 -15.38408,-9.784722 -24.588794,-7.483546 -6.778887,1.694722 -12.070739,5.805376 -18.708867,8.018087 -4.243764,1.414587 -17.126424,8.594973 -18.708868,11.759858 -3.060207,6.120416 -4.199217,14.201269 -6.414468,20.847019 -1.013121,3.03937 1.420286,7.85021 0,10.69079 -3.24272,6.48544 -7.023941,14.74229 -4.276312,22.98517 5.328425,15.98528 17.145457,28.1658 32.072341,33.14142 5.536991,1.84567 12.636175,-0.77697 18.174328,1.06908 1.05876,0.35292 2.75246,-0.49465 3.74177,0 5.30509,2.65255 27.80652,-1.07956 31.53781,-4.81085 7.45885,-7.45885 14.14001,-16.22763 17.63979,-26.72695 0.36702,-1.10106 2.01002,-2.21323 2.67269,-3.20724 3.64433,-5.46649 9.88385,-14.7152 7.48355,-21.91609 -1.20588,-3.61763 -8.13561,-17.22278 -10.69078,-19.77795 -0.50208,-0.502076 -1.85552,-0.755687 -2.13816,-1.603618 -1.5446,-4.633804 -5.93374,-7.296991 -8.55262,-11.225321 C 135.33969,75.58552 123.18668,67.585465 112.2532,63.940972 110.43913,63.33628 108.60703,63.7215 106.90781,62.871894 103.22448,61.03023 87.358629,65.468332 83.922631,66.613666 77.675575,68.696019 67.636267,87.392379 66.282842,92.80608 c -2.149713,8.59886 -9.87338,14.1185 -12.828937,22.98518 -2.471859,7.41557 0.630063,21.57261 3.741772,27.79603 1.748203,3.4964 -0.485251,13.51133 1.069078,18.17433 0.943814,2.83143 3.33906,5.47721 5.345393,7.48354 12.072834,12.07284 27.61244,6.29749 41.694042,1.60362 2.63213,-0.87737 5.92173,-0.19211 8.55263,-1.06908 6.50047,-2.16682 13.5741,-2.59171 20.31248,-4.27631 6.9748,-1.7437 28.12452,-23.97066 30.46873,-31.00326 1.97047,-5.91144 1.97418,-15.45903 0,-21.38157 -1.60163,-4.80488 -5.76701,-9.28295 -6.94901,-12.82893 -6.6753,-20.025914 -33.36155,-29.721951 -51.31575,-34.210502 -1.26547,-0.316367 -2.09102,0.255485 -3.20723,0.534538 -2.34716,0.58679 -5.113209,0.06047 -7.483551,0.53454 -6.563346,1.31267 -12.051987,6.269022 -17.639789,9.621703 -1.82454,1.094724 -5.989576,3.986525 -8.018084,4.276312 -0.881946,0.125992 -1.89058,-0.426609 -2.672696,0 -1.379755,0.752594 -12.529042,9.400021 -13.898015,11.225321 -10.502201,14.002938 -5.839449,29.521088 -1.069078,43.832198 1.458809,4.37643 -0.987668,10.8536 1.069078,14.9671 3.612761,7.22552 12.338979,14.57733 20.312483,16.57071 3.359206,0.8398 6.849941,0.77704 10.156243,1.60361 3.689368,0.92235 8.07049,-0.92234 11.759858,0 18.293651,4.57341 31.988811,-3.49454 48.643051,-10.15624 6.00384,-2.40153 15.65089,-6.37108 19.24341,-11.75986 4.64328,-6.96492 6.41447,-16.27423 6.41447,-24.58879 0,-5.4641 0.8985,-12.10102 -1.60362,-17.10525 -10.44183,-20.883659 -27.10419,-29.894864 -48.64305,-35.279579 -4.77163,-1.192909 -11.94975,-4.49611 -17.10525,-3.207235 -4.70735,1.176835 -7.839847,3.474456 -11.759861,6.414469 -3.097365,2.323023 -8.358115,4.179056 -11.759861,5.879928 -1.528643,0.764323 -8.305014,3.733911 -9.621702,3.207234 -0.827178,-0.33087 -1.292977,-1.885344 -2.138156,-1.603616 -1.320213,0.440071 -1.616094,2.301573 -2.672694,3.207234 -1.685007,1.444292 -4.693288,2.020591 -6.414471,3.741772 -4.36309,4.363093 -9.538692,20.644523 -8.018084,26.726953 0.833959,3.33583 1.406604,9.34067 0.534538,12.82894 -2.279137,9.11655 -2.26118,22.2456 2.672696,30.46872 7.632576,12.72096 22.978041,19.59858 36.883194,21.9161 4.271918,0.71199 8.650459,1.837 12.828941,2.6727 6.14135,1.22827 11.43538,-2.07326 17.10525,-3.20723 8.61639,-1.72328 17.71892,-1.37592 25.65787,-5.3454 4.6095,-2.30474 8.08892,-8.90843 11.22532,-12.82893 16.97831,-21.22289 20.94846,-51.7918 10.15624,-76.973625 -7.48268,-17.459589 -20.65321,-29.521038 -40.62496,-26.192413 -4.91536,0.819226 -9.5693,2.931231 -14.43256,3.741774 -5.29885,0.883142 -11.67615,6.921103 -16.570711,8.552625 -5.041926,1.680641 -10.958904,0.980273 -16.03617,2.672693 -4.455623,1.48521 -8.519039,3.908759 -12.828937,5.345391 -1.355209,0.451736 -2.184863,2.696048 -3.207234,3.207234 -12.390557,6.195279 -19.715231,32.385921 -17.105252,45.435821 1.290678,6.45338 5.218621,13.55081 9.087165,18.70886 2.220796,2.96107 3.076578,7.13116 5.34539,10.15625 6.456672,8.60889 14.83147,15.43382 24.588796,20.31248 5.92138,2.96069 11.46417,4.33603 17.639793,5.87993 2.01238,0.5031 4.40208,-0.50309 6.41446,0 13.0908,3.2727 23.11912,-9.88958 28.33057,-20.31248 2.5424,-5.08479 5.45832,-10.29922 6.41447,-16.03618 1.3071,-7.84261 -0.24033,-16.19777 1.06908,-24.05425 1.81119,-10.86717 -0.65166,-38.999332 -7.48355,-48.108515 -2.40187,-3.202504 -5.2378,-7.375959 -8.01808,-10.156243 -1.79612,-1.796116 -4.68569,-2.641404 -6.94901,-3.207234 -1.82489,-0.456221 -3.42783,-1.658766 -5.34539,-2.138156 -13.99371,-3.49843 -30.884108,7.364388 -40.090427,16.570711 -0.61263,0.612629 -7.722484,6.949006 -8.018087,6.949006 -0.734653,0 -1.573779,-1.004853 -2.138156,-0.534538 -0.865714,0.721429 -0.509977,2.228805 -1.069078,3.207234 -0.640271,1.120474 -2.833648,2.530941 -3.741772,3.741772 -5.683284,7.577712 -11.060724,17.515943 -13.363477,26.726953 -1.3951,5.5804 -0.457989,24.69086 2.672694,28.86511 11.46784,15.29045 33.427534,29.98187 52.384823,33.14142 9.02364,1.50394 23.08411,-2.98943 31.00327,-6.94901 2.60999,-1.30499 6.02592,-1.15667 8.55262,-2.67269 8.03199,-4.8192 14.24392,-8.46884 18.17433,-17.63979 3.51044,-8.19103 4.1668,-18.62538 3.20724,-27.26149 -0.49188,-4.42685 0.0175,-8.94742 -0.53454,-13.36348 -1.69465,-13.55717 -15.81094,-31.785247 -26.19242,-40.090428 -4.78619,-3.828957 -9.68503,-3.773437 -14.96709,-6.414468 -5.56772,-2.783861 -11.82918,-4.264758 -18.17433,-3.207234 -5.364711,0.894119 -21.028198,12.08238 -26.726949,15.501633 -3.663403,2.198042 -7.801933,3.751834 -11.225321,6.414468 -7.695518,5.985402 -16.586568,19.338559 -18.174327,28.865109 -0.800838,4.80502 0.410244,9.82073 1.069078,14.43255 0.918723,6.43107 1.097333,13.07305 3.741772,19.24341 1.7048,3.97787 5.291891,7.95388 8.018086,11.22532 3.11422,3.73706 5.62849,8.23041 9.621703,11.22532 8.920935,6.6907 21.958935,11.76598 33.141418,13.36348 11.58241,1.65462 27.57638,-1.86724 37.41774,-8.01809 5.3062,-3.31638 9.96369,-8.45635 15.50163,-11.22532 4.90755,-2.45377 12.87803,-5.97811 15.50163,-11.22532 6.06676,-12.13351 4.71958,-27.5049 0,-40.09043 -4.95324,-13.208629 -18.43361,-35.676485 -31.5378,-42.228584 -3.33324,-1.666621 -6.83081,-3.148137 -10.15624,-4.81085 -6.41848,-3.209239 -13.40262,-5.87434 -20.84703,-4.810852 -7.40238,1.057484 -15.848497,4.218625 -21.916099,8.552624 -3.050429,2.178878 -5.438704,5.259319 -8.552625,7.483546 -3.030336,2.164528 -6.250365,5.450637 -9.621702,6.949009 -1.02978,0.457679 -2.335056,0.355478 -3.207234,1.069078 -1.186291,0.9706 -1.654384,2.596174 -2.672694,3.741772 -1.4571,1.639237 -3.787553,2.718475 -5.345393,4.276315 -1.964669,1.964669 -3.996907,5.576252 -4.81085,8.018084 -1.544452,4.633358 -4.473744,8.976368 -5.87993,13.898018 -4.789369,16.76279 -3.029077,34.86378 5.87993,49.71213 3.028183,5.04697 9.127337,7.96468 13.898015,10.69078 6.594956,3.76855 12.889002,8.09241 20.847023,9.08716 20.772359,2.59655 54.632249,-5.2147 68.420999,-22.45064 6.70341,-8.37925 9.22952,-19.17082 10.69078,-29.39964 0.46132,-3.22927 1.67579,-6.38514 2.13816,-9.62171 1.49957,-10.49698 -4.20886,-23.746004 -10.15624,-32.072341 -10.88739,-15.242336 -29.78916,-27.950035 -48.10852,-31.003263 -2.71829,-0.453049 -5.69675,-1.640253 -8.55262,-1.069078 -3.46384,0.692766 -6.711695,2.346094 -10.156247,3.207234 -5.520264,1.380066 -10.671019,2.25697 -15.501633,5.87993 -5.527074,4.145307 -9.08573,10.154809 -13.898014,14.967093 -28.015152,28.015155 -22.433836,67.148185 11.759858,87.664405 3.060007,1.836 7.110338,4.21411 10.690781,4.81085 9.042365,1.50706 39.642985,4.24728 47.573975,1.60362 9.25531,-3.08511 14.78138,-11.64843 22.98518,-16.57071 8.60047,-5.16029 16.39341,-11.23062 18.17433,-21.9161 C 178.21837,117.16277 150.95632,75.346551 137.91107,64.47551 123.95366,52.844334 92.969544,44.935531 76.439084,54.853808 69.15509,59.224203 66.470558,69.004788 62.006529,75.700831 54.067559,87.609285 45.748926,102.77897 42.228584,116.86034 c -1.721524,6.8861 4.784619,21.49853 7.483547,27.79603 2.511671,5.86056 11.780623,15.77928 17.639789,18.70886 9.028332,4.51417 37.98208,9.99926 48.10851,8.55263 8.44739,-1.20677 16.33723,-5.6605 24.5888,-8.01809 5.01407,-1.43259 19.68112,-5.54037 22.45064,-10.15624 13.26901,-22.11502 -0.59036,-48.75469 -10.69078,-68.955537 -2.85584,-5.711677 -6.11508,-12.529547 -10.69078,-17.105249 -6.47459,-6.474595 -17.77236,-14.031193 -26.19242,-17.639789 -7.53503,-3.229298 -17.59298,-0.860047 -24.588791,2.138156 -4.990084,2.138609 -10.823667,4.142229 -15.501633,6.949009 -12.410874,7.446526 -18.148533,34.387485 -21.916101,47.57397 -2.641796,9.24629 -8.607049,18.91686 -6.949006,28.86511 1.568516,9.41111 6.53583,16.65039 12.294396,24.05426 13.950151,17.93591 27.650307,24.05426 50.246675,24.05426 8.5231,0 14.91068,-0.52326 22.98518,-2.13816 2.91757,-0.58351 5.5741,-2.71081 8.55262,-3.20723 1.93725,-0.32288 4.67056,-0.73166 6.41447,-1.60362 27.07503,-13.53752 21.96984,-51.53973 9.6217,-73.76639 C 149.26381,90.683452 139.29095,81.465342 128.82391,72.493597 119.44697,64.456217 109.93872,56.93226 96.751567,59.13012 89.598158,60.322356 85.661068,66.813524 79.646319,69.8209 c -6.244723,3.122361 -12.95477,6.046174 -18.708868,10.156243 -3.466965,2.476405 -6.378831,5.315693 -9.621702,8.018084 -5.21653,4.347109 -11.396443,6.82081 -15.501633,12.294403 -3.196741,4.26232 -2.138156,10.4995 -2.138156,15.50163 0,3.21299 -1.343925,6.9187 -0.534538,10.15624 1.316726,5.2669 6.309942,10.45844 9.621703,14.43255 12.27765,14.73319 30.13771,27.67239 49.71213,30.46873 9.555965,1.36514 22.924115,0.8919 31.537805,-4.27631 2.55057,-1.53034 5.15021,-3.12917 8.01809,-4.27631 6.19498,-2.478 14.27506,-2.51521 19.2434,-7.48355 7.23992,-7.23992 8.55262,-22.90561 8.55262,-32.60688 0,-10.00042 -7.56551,-23.615359 -13.89801,-31.003266 -2.55227,-2.977645 -5.00615,-6.383615 -6.94901,-9.621705 -1.43319,-2.388659 -4.37803,-3.648361 -6.41447,-5.34539 C 119.96452,65.734397 104.8818,59.298866 88.733481,56.991964 c -3.904856,-0.557837 -7.459157,1.132848 -11.225318,1.603618 -2.808177,0.35102 -5.785536,-0.01889 -8.552625,0.534538 -14.014153,2.802832 -25.30667,16.784978 -27.261491,30.468725 -1.670688,11.694805 3.498815,27.358705 9.087162,37.417735 1.648589,2.96746 4.101163,5.17206 5.87993,8.01808 7.033713,11.25394 15.775898,28.06564 29.399648,32.60689 15.935823,5.31194 26.541033,1.32804 40.090433,-6.41447 10.86243,-6.20711 22.15628,-9.80302 30.46872,-19.77795 14.13096,-16.95715 12.14843,-43.58255 0,-60.937449 -3.44886,-4.926944 -7.74673,-8.949042 -11.75986,-13.363475 C 140.27044,62.099602 135.04623,56.361348 128.82391,53.250189 120.37363,49.025047 97.931186,43.559401 89.268021,48.973877 79.461124,55.103191 74.396588,64.983031 67.88646,74.097212 61.777205,82.65017 54.676029,91.277862 51.315749,101.3587 c -1.281848,3.84555 -0.933241,8.27215 -1.603618,12.2944 -0.626708,3.76026 -2.243434,8.4555 -1.603616,12.2944 2.874719,17.24831 13.206793,33.8453 28.330569,43.29766 5.669077,3.54318 12.754684,6.55659 19.243405,7.48355 3.036668,0.43381 6.058171,1.70544 9.087161,2.13816 13.32894,1.90413 26.04911,-6.2271 37.95228,-10.69078 7.18031,-2.69262 14.04847,-3.35769 19.77794,-9.08717 2.75351,-2.75351 4.3375,-6.68577 5.87993,-10.15624 2.34166,-5.26873 5.29441,-10.71548 5.87993,-16.57071 2.35735,-23.57349 -5.71713,-51.001905 -24.05426,-66.282842 -2.00017,-1.666814 -3.47727,-3.609525 -5.87993,-4.810852 -8.67953,-4.339767 -27.20851,-11.353419 -36.88319,-7.483546 -4.27383,1.709531 -8.187576,5.671327 -12.294398,8.018086 -4.676606,2.672345 -10.247606,5.204667 -14.432555,8.552625 -9.617165,7.693731 -17.621449,20.810338 -22.98518,31.537799 -1.364379,2.72877 -4.214402,4.62512 -5.34539,8.01809 -2.720734,8.1622 6.719517,31.5371 10.690781,38.48681 2.075174,3.63156 5.610521,6.6796 8.552624,9.6217 6.307,6.307 13.155409,14.48697 22.450642,16.03617 12.737796,2.12297 23.701056,-5.70332 34.745036,-11.22531 6.73146,-3.36574 14.19434,-4.69175 20.84702,-8.01809 8.45547,-4.22774 16.11281,-23.14035 17.10525,-32.07234 1.66412,-14.97701 -10.74051,-27.858195 -19.2434,-38.486815 -7.84319,-9.803982 -16.83604,-23.175253 -28.86511,-28.330569 -2.96361,-1.270119 -6.51557,-1.785229 -9.6217,-2.672697 -4.05378,-1.158221 -8.52927,-2.217854 -12.82894,-1.603616 -5.820326,0.831475 -21.708308,13.090335 -26.726954,17.105249 -7.506922,6.005539 -27.936433,18.735937 -30.468726,28.86511 -1.570609,6.282428 -1.217462,15.784088 0.53454,21.916098 3.499422,12.24798 16.586393,37.29586 26.726952,44.90128 9.64316,7.23237 22.148606,9.98893 33.67596,12.2944 14.841298,2.96826 42.716808,-8.17632 52.384828,-19.77794 4.57586,-5.49104 8.29719,-13.73726 9.08716,-20.84703 1.84187,-16.5768 -1.88229,-33.31498 -6.41446,-49.177591 -0.92459,-3.236037 -0.69823,-6.452817 -1.60362,-9.621702 -4.29738,-15.040814 -12.31062,-19.053091 -24.5888,-26.726952 -3.36811,-2.10507 -6.57324,-4.757171 -10.69078,-5.34539 -30.901768,-4.414538 -48.248941,15.445002 -63.610147,38.48681 -1.62932,2.44398 -4.654283,4.214238 -6.414468,6.414471 -2.936753,3.67094 -6.677821,10.667274 -7.483546,15.501634 -1.155653,6.93391 1.79982,14.37384 3.741771,20.84702 1.942947,6.47648 1.612236,13.38933 3.741775,19.77794 3.365428,10.09629 9.485595,20.46633 17.639789,27.2615 8.452456,7.04371 17.17086,17.24708 28.865107,18.70886 13.151179,1.6439 27.238139,-7.2046 38.486809,-12.82893 18.85058,-9.42529 27.00288,-10.97825 35.81412,-31.53781 2.80137,-6.53652 1.05449,-20.94183 0,-27.79603 -3.9522,-25.689318 -26.32313,-56.626515 -50.78121,-66.817381 -6.4023,-2.667624 -13.4598,-3.207234 -20.312485,-3.207234 -11.559023,0 -24.350373,0.246766 -33.675959,8.018087 -5.298059,4.415049 -6.714599,13.429196 -9.621703,19.243405 -3.486565,6.97313 -12.370255,26.723413 -13.363477,33.675963 -1.908929,13.36251 11.88249,50.90384 21.381564,60.40291 10.477346,10.47735 36.429418,14.93219 50.78121,16.03617 17.03376,1.31029 33.74794,3.01062 47.57397,-9.08716 4.63381,-4.05459 6.86303,-8.9582 10.15625,-13.89802 20.14952,-30.22429 0.39976,-73.366625 -22.45065,-96.217026 C 141.59469,61.210118 133.85423,54.641405 124.01306,52.181111 112.52304,49.308607 79.933918,53.49713 71.093694,62.337354 62.677756,70.753292 55.77519,89.522958 52.384827,100.82417 c -3.76201,12.54003 -10.599965,23.26797 -9.087165,36.88319 2.248459,20.23612 42.131231,49.64192 62.006528,51.85029 10.44703,1.16078 22.82908,-4.21138 31.00327,-10.15624 12.4063,-9.02277 22.19805,-19.65577 27.79603,-34.2105 6.71117,-17.44906 4.27604,-52.91981 -5.34539,-68.955541 -7.98709,-13.311807 -24.69815,-27.658928 -40.62497,-29.934186 -36.606777,-5.22954 -62.724862,31.73843 -70.559155,63.075607 -1.468954,5.87581 -3.289168,12.00958 -2.672694,18.17433 0.6439,6.43901 5.301927,11.2876 7.483546,17.10525 10.808613,28.82297 26.115682,43.25691 58.799293,45.43582 11.67652,0.77843 33.60516,0.85491 43.29766,-6.41447 7.84237,-5.88177 10.15506,-17.63662 13.36348,-26.19241 14.19603,-37.85609 3.0535,-73.996215 -29.93419,-97.82065 C 131.21647,54.82967 124.84261,49.412604 117.06405,46.301183 105.70736,41.758507 88.642424,39.162111 76.973622,44.163027 51.793399,54.95455 32.030519,97.649587 34.2105,123.80935 c 1.049417,12.593 12.943856,22.03769 18.708865,32.60688 5.087897,9.32781 8.148915,20.96456 18.708867,25.65787 17.824667,7.92208 60.921198,4.29257 74.835468,-9.6217 6.38705,-6.38705 10.03292,-17.80438 12.82894,-26.19242 2.81041,-8.43123 5.81672,-16.69172 6.41447,-25.65787 C 167.50368,93.653535 150.50779,68.740318 128.28937,54.853808 112.03606,44.69549 98.565617,46.860983 81.784475,54.319267 75.643244,57.048704 69.323843,59.501693 64.144686,63.940972 35.787607,88.247039 30.802834,132.22836 51.850287,162.29616 c 2.766838,3.95262 4.556543,8.83285 8.018086,12.29439 9.402765,9.40277 36.168515,18.53167 48.643057,12.2944 11.06201,-5.531 18.26705,-18.21578 24.58879,-28.33057 C 144.8204,139.8021 158.20491,117.49225 152.87817,94.409698 149.95622,81.74792 138.7204,72.397159 129.35845,64.47551 122.8844,58.997468 116.6156,53.908853 107.97689,52.181111 71.068961,44.799527 54.550143,70.370003 45.435818,101.3587 c -3.387105,11.51616 -9.007022,24.00057 -6.949006,36.34866 2.25139,13.50835 14.929027,24.9675 26.192414,31.5378 8.071741,4.70852 41.142794,16.67595 50.781204,17.63979 3.68103,0.3681 7.67106,-0.0997 11.22533,-1.06907 29.91468,-8.15856 53.51458,-59.82965 41.69404,-88.198948 -4.14981,-9.959551 -16.44473,-22.2045 -25.12334,-28.330569 -27.1371,-19.155606 -54.184286,-22.254795 -79.111774,2.672693 -5.808475,5.808475 -11.2395,11.253682 -14.967093,18.708868 -9.184129,18.368256 -5.639573,47.065726 2.138156,65.213766 3.744661,8.73754 8.816123,21.82492 17.639789,26.72695 9.575837,5.31991 27.810732,2.43608 37.952272,0.53454 16.02473,-3.00464 35.52707,-9.64747 45.43582,-23.51972 13.05524,-18.27734 7.05241,-55.41627 -3.74178,-73.766389 C 144.53462,78.942776 139.44721,73.129835 134.1693,67.148206 124.20106,55.850861 114.3995,43.027639 98.355186,42.024871 74.012281,40.50344 59.064813,61.380089 51.850287,81.580759 46.115205,97.63899 39.832031,111.82066 43.832203,129.15474 c 3.583268,15.52749 15.928146,33.88921 30.468725,41.1595 6.693797,3.3469 15.145428,4.75605 22.450639,5.87993 10.288763,1.58289 20.933803,2.52716 31.003263,-1.06908 9.64284,-3.44387 17.41756,-10.4355 22.45064,-19.2434 15.69967,-27.47441 8.84669,-54.82227 -15.50163,-74.300931 -3.74715,-2.997719 -7.35491,-5.962444 -11.75986,-8.018084 -13.71474,-6.400215 -28.060815,-2.698623 -42.228583,0 -10.899429,2.076079 -23.489372,4.863137 -29.399648,15.501633 -15.381041,27.685872 -3.987199,64.108002 23.519717,79.111782 8.200668,4.47309 18.598832,9.25295 28.330574,7.48354 11.66098,-2.12018 19.59101,-15.06612 27.79603,-22.45064 4.70865,-4.23779 9.17214,-8.27795 12.29439,-13.89801 3.04213,-5.47583 3.8103,-12.11609 4.27632,-18.17433 1.38574,-18.01466 -2.82918,-32.046305 -14.43256,-45.97036 -3.8828,-4.659368 -8.30699,-10.287563 -13.89801,-12.828936 -11.09344,-5.042472 -25.057116,-0.04415 -34.745041,6.414468 -4.850252,3.233502 -9.039723,8.133681 -13.898015,11.225321 -0.950727,0.60501 -2.369611,0.315217 -3.207234,1.069078 -3.385902,3.047312 -8.256437,12.536252 -9.087165,17.105249 -3.571835,19.64511 11.706347,37.06131 24.054257,50.78121 11.203382,12.4482 14.238521,19.57657 31.537808,17.10525 1.81942,-0.25992 3.61527,-0.20402 5.34539,-1.06908 12.93827,-6.46914 22.79287,-38.72668 26.72695,-51.31575 4.57177,-14.629656 6.57992,-32.270522 -2.13816,-45.970356 -2.55416,-4.013679 -6.7429,-6.249696 -10.69078,-8.552624 -19.403,-11.318417 -45.864024,-2.440387 -59.86837,13.898014 -24.517053,28.603236 -23.676255,83.286766 15.501631,98.355186 36.386579,13.99484 60.919599,-22.18284 63.075609,-54.52298 0.55924,-8.38858 1.37398,-17.487974 -3.20724,-25.123338 -3.34846,-5.580775 -9.29167,-9.269865 -14.43255,-12.828937 -7.99063,-5.53198 -14.54904,-9.973656 -24.5888,-10.690781 -8.93074,-0.63791 -28.86491,5.345198 -35.279572,11.759859 -10.64383,10.64383 -21.915559,37.956067 -19.777945,52.919367 1.751484,12.26038 10.048137,20.0976 18.708867,27.79603 4.833133,4.29612 11.975362,9.84909 18.708868,10.69078 10.778792,1.34735 28.422472,-2.23006 36.348652,-10.15624 22.53966,-22.53966 33.66599,-66.611541 5.34539,-89.268024 -4.98379,-3.987035 -11.44736,-10.798862 -18.17433,-11.759858 -11.91165,-1.701665 -19.507084,8.335941 -27.796027,14.967092 -4.641284,3.713028 -9.79777,8.074663 -13.363475,12.828937 -9.299133,12.398843 -10.747269,38.476703 -6.414468,52.919363 3.227718,10.75907 27.285029,39.64106 40.62497,37.41774 9.07533,-1.51256 16.76099,-10.23178 21.9161,-17.10525 7.25901,-9.67868 14.01546,-21.55173 16.03617,-33.67596 2.34197,-14.05183 0.0442,-38.727919 -6.94901,-51.315751 C 133.93941,66.199852 121.74334,62.615063 111.18412,61.802816 101.10832,61.027754 89.817407,60.234604 80.180856,63.940972 57.935259,72.49697 50.125143,95.794929 47.039437,117.39487 c -0.86791,6.07537 -1.640771,14.29633 0,20.31249 2.193755,8.04378 7.78638,13.47475 12.828936,19.77795 4.346771,5.43346 8.421116,10.6754 14.432555,14.43255 3.118641,1.94915 6.718893,2.71057 10.156241,3.74177 24.743091,7.42293 51.449261,-1.21928 68.421001,-20.31248 2.28508,-2.57072 5.48843,-4.69038 7.48355,-7.48355 9.30202,-13.02284 10.73349,-38.85049 6.949,-53.988442 -1.73771,-6.95085 -7.41285,-12.740574 -11.75986,-18.174327 -5.19281,-6.491012 -11.84618,-14.599301 -19.2434,-18.708867 -7.04028,-3.911264 -22.09864,-3.45625 -29.93419,-2.672697 -9.225494,0.922552 -19.336538,-1.629129 -28.33057,1.069078 -3.259796,0.97794 -6.694003,1.911961 -9.621702,3.741775 -3.540943,2.213088 -5.825482,5.571823 -9.087165,8.018086 -6.085816,4.564362 -12.512508,9.377979 -17.105249,15.501631 -4.759912,6.346552 -7.85718,39.934953 -6.949006,48.108513 0.679498,6.11549 2.984328,12.13065 5.345391,17.63979 1.48282,3.45991 4.4422,6.02738 5.879927,9.6217 2.263992,5.65998 2.082904,14.03936 7.483547,17.63979 5.466056,3.64404 22.847855,4.33306 29.934188,5.34539 10.789346,1.54134 23.095039,7.03395 34.210499,4.81086 10.14473,-2.02895 21.9604,-6.45877 29.39965,-13.89802 3.15404,-3.15404 5.88582,-6.9549 9.08716,-10.15624 2.23596,-2.23596 6.08278,-4.01863 6.94901,-7.48355 1.44264,-5.77055 0.21635,-11.67071 1.06908,-17.63979 1.16474,-8.1532 1.00192,-14.60044 -2.13816,-22.45064" />
  </g>
</svg>
